<svg width="18" height="18" viewBox="0 0 18 18" fill="none" xmlns="http://www.w3.org/2000/svg">
<rect width="18" height="18" fill="#F5F5F5"/>
<g clip-path="url(#clip0_1_6)">
<rect width="1920" height="9954" transform="translate(-1483 -21)" fill="white"/>
<rect x="-1483" y="-21" width="1920" height="60" fill="#37393F"/>
<path fill-rule="evenodd" clip-rule="evenodd" d="M17.1768 9.08983C17.1768 4.54632 13.3511 0.862305 8.63283 0.862305C3.91458 0.862305 0.0888672 4.54632 0.0888672 9.08983C0.0888672 13.1962 3.21275 16.6 7.29784 17.2178V11.4688H5.1279V9.08983H7.29784V7.2772C7.29784 5.21555 8.57371 4.07581 10.5251 4.07581C11.46 4.07581 12.4379 4.23669 12.4379 4.23669V6.26162H11.36C10.2993 6.26162 9.96745 6.89558 9.96745 7.54717V9.08983H12.3369L11.9585 11.4688H9.96783V17.2185C14.0529 16.6011 17.1768 13.1973 17.1768 9.08983Z" fill="white"/>
</g>
<defs>
<clipPath id="clip0_1_6">
<rect width="1920" height="9954" fill="white" transform="translate(-1483 -21)"/>
</clipPath>
</defs>
</svg>
