<svg width="1142" height="99" viewBox="0 0 1142 99" fill="none" xmlns="http://www.w3.org/2000/svg">
<path d="M12.1372 27.606V27.7976L11.333 27.9893V36.4814L12.1372 36.6731V36.8648H8.32476V36.6731L9.12895 36.4814V29.2425L5.9718 36.9975H5.56968L1.47432 29.2425V36.275L2.54656 36.6731V36.8648H0V36.6731L1.07224 36.275V27.9893L0.268049 27.7976V27.606H1.93597C2.18914 27.606 2.41253 27.6354 2.59124 27.6944C2.76994 27.7534 2.94867 27.8271 3.0827 27.9303C3.23163 28.0335 3.35076 28.1515 3.45501 28.2842C3.55926 28.4168 3.64861 28.579 3.73797 28.7412L6.65683 34.2699L8.89067 28.7412C8.96513 28.5495 9.03961 28.3874 9.14386 28.2547C9.23321 28.122 9.35232 28.004 9.48635 27.9008C9.62038 27.7976 9.78422 27.7239 9.97782 27.6797C10.1714 27.6354 10.4097 27.606 10.7075 27.606H12.1372Z" fill="#40DDB6"/>
<path d="M16.9028 30.0679C17.4538 30.0679 17.9601 30.1416 18.392 30.3038C18.8239 30.4659 19.1962 30.7018 19.5089 30.9967C19.8216 31.3063 20.045 31.6749 20.2088 32.1024C20.3727 32.53 20.4471 33.0313 20.4471 33.5768C20.4471 34.1223 20.3727 34.6236 20.2088 35.0511C20.045 35.4787 19.8067 35.8473 19.5089 36.1569C19.1962 36.4665 18.8239 36.6876 18.392 36.8498C17.9601 37.012 17.4538 37.0857 16.9028 37.0857C16.3517 37.0857 15.8454 37.012 15.4135 36.8498C14.9817 36.6876 14.6094 36.4517 14.2966 36.1569C13.9839 35.8473 13.7605 35.4787 13.5967 35.0511C13.4329 34.6236 13.3584 34.1223 13.3584 33.5768C13.3584 33.0313 13.4329 32.53 13.5967 32.1024C13.7605 31.6749 13.9988 31.3063 14.2966 30.9967C14.6094 30.6871 14.9817 30.4659 15.4135 30.3038C15.8454 30.1416 16.3369 30.0679 16.9028 30.0679ZM16.9028 36.8351C17.0517 36.8351 17.2006 36.7908 17.3644 36.6876C17.5133 36.5844 17.6474 36.4222 17.7665 36.1716C17.8856 35.921 17.9899 35.5966 18.0644 35.1838C18.1388 34.7562 18.1835 34.2255 18.1835 33.5915C18.1835 32.9428 18.1388 32.4121 18.0644 31.9992C17.9899 31.5864 17.8856 31.2473 17.7665 31.0114C17.6474 30.7755 17.5133 30.5986 17.3644 30.4954C17.2155 30.3922 17.0666 30.348 16.9028 30.348C16.7538 30.348 16.6049 30.3922 16.4411 30.4954C16.2922 30.5986 16.1581 30.7608 16.039 31.0114C15.9198 31.2621 15.8156 31.5864 15.7412 31.9992C15.6667 32.4268 15.622 32.9576 15.622 33.5915C15.622 34.2402 15.6667 34.771 15.7412 35.1838C15.8156 35.5966 15.9198 35.9357 16.039 36.1716C16.1581 36.4075 16.2922 36.5844 16.4411 36.6876C16.59 36.7761 16.7389 36.8351 16.9028 36.8351Z" fill="#40DDB6"/>
<path d="M26.9547 27.606C27.7589 27.606 28.161 28.004 28.161 28.8002V36.4962L28.9652 36.6878V36.8795H27.7589C27.4313 36.8795 27.1781 36.8353 26.9845 36.7321C26.7909 36.6289 26.6271 36.5109 26.5228 36.393C26.3888 36.2455 26.2846 36.0686 26.225 35.8917C26.1059 36.1276 25.9569 36.3193 25.7782 36.4962C25.6293 36.6436 25.4208 36.7763 25.1676 36.909C24.9145 37.0417 24.6166 37.1007 24.2741 37.1007C23.8869 37.1007 23.5295 37.0269 23.2018 36.8795C22.8593 36.7321 22.5764 36.5109 22.3381 36.2161C22.0998 35.9212 21.8914 35.5526 21.7573 35.125C21.6084 34.6827 21.5488 34.1815 21.5488 33.5917C21.5488 33.002 21.6233 32.5007 21.7573 32.0584C21.9063 31.6161 22.0998 31.2623 22.3679 30.9674C22.6211 30.6726 22.9338 30.4514 23.2912 30.304C23.6487 30.1566 24.0507 30.0828 24.4975 30.0828C24.7358 30.0828 24.9443 30.1123 25.1379 30.1566C25.3315 30.2155 25.4953 30.2745 25.6293 30.3482C25.7931 30.4219 25.9271 30.5104 26.0463 30.6136V28.0335L25.2421 27.8418V27.6502H26.9547V27.606ZM26.0165 30.9969C25.9123 30.8937 25.8229 30.8053 25.7038 30.7315C25.5995 30.6578 25.4953 30.5988 25.3761 30.5399C25.257 30.4809 25.1379 30.4662 25.0038 30.4662C24.84 30.4662 24.6762 30.5104 24.5273 30.5989C24.3784 30.6873 24.2592 30.8347 24.1401 31.0559C24.0358 31.277 23.9465 31.6014 23.8869 31.9995C23.8274 32.4123 23.7976 32.9283 23.7976 33.577C23.7976 34.211 23.8274 34.7122 23.8869 35.1103C23.9465 35.5084 24.021 35.818 24.1252 36.0391C24.2146 36.2603 24.3188 36.4225 24.4528 36.4962C24.572 36.5699 24.6911 36.6141 24.8102 36.6141C25.0187 36.6141 25.1974 36.5552 25.3463 36.4519C25.4953 36.3487 25.6144 36.2161 25.7186 36.0834C25.8378 35.9212 25.9421 35.7443 26.0314 35.5526V30.9969H26.0165Z" fill="#40DDB6"/>
<path d="M33.4479 37.1003C32.3012 37.1003 31.4077 36.7907 30.7822 36.1715C30.1419 35.5523 29.8291 34.6824 29.8291 33.5914C29.8291 33.0459 29.9036 32.5447 30.0674 32.1171C30.2312 31.6895 30.4546 31.321 30.7376 31.0113C31.0205 30.7017 31.363 30.4806 31.78 30.3184C32.1821 30.1562 32.6288 30.0825 33.1203 30.0825C33.6266 30.0825 34.0734 30.1562 34.4606 30.2889C34.8627 30.4364 35.1903 30.628 35.4733 30.8639C35.7562 31.0998 35.9647 31.3799 36.1136 31.7043C36.2626 32.0286 36.337 32.3677 36.337 32.7363C36.337 32.8543 36.337 32.9722 36.3221 33.0607C36.3072 33.1491 36.2924 33.2376 36.2775 33.3113C36.2477 33.3998 36.2328 33.4735 36.203 33.5325C35.8158 33.6062 35.3988 33.6799 34.952 33.7241C34.5797 33.7831 34.1479 33.8273 33.6564 33.8568C33.165 33.8863 32.6586 33.9158 32.1225 33.9158C32.1225 34.4613 32.1672 34.9183 32.2416 35.2869C32.3161 35.6555 32.4352 35.9504 32.5693 36.1568C32.7182 36.3779 32.882 36.5253 33.0756 36.6138C33.2692 36.7023 33.4926 36.7465 33.716 36.7465C33.9841 36.7465 34.2372 36.7023 34.4755 36.5991C34.7137 36.4959 34.9222 36.3779 35.0861 36.2157C35.2648 36.0536 35.3988 35.8619 35.503 35.6555C35.6073 35.4491 35.652 35.2427 35.652 35.0215H35.9796C35.9796 35.2869 35.92 35.5375 35.8009 35.7882C35.6818 36.0388 35.5031 36.26 35.2797 36.4516C35.0563 36.6433 34.7882 36.7907 34.4755 36.9087C34.1776 37.0414 33.8351 37.1003 33.4479 37.1003ZM32.1076 33.5767C32.4055 33.5767 32.6735 33.5767 32.9118 33.5619C33.1501 33.5472 33.3437 33.5325 33.5075 33.5177C33.7011 33.503 33.85 33.4735 33.984 33.4587C33.9989 33.3703 34.0287 33.2671 34.0436 33.1639C34.0585 33.0607 34.0734 32.9575 34.0883 32.8395C34.1032 32.7216 34.1032 32.5889 34.1032 32.4562C34.1032 32.0581 34.0734 31.719 34.0138 31.4536C33.9542 31.1883 33.8798 30.9671 33.7755 30.7902C33.6862 30.628 33.5819 30.4953 33.4479 30.4364C33.3139 30.3774 33.2096 30.3332 33.0905 30.3332C32.9714 30.3332 32.8522 30.3774 32.7331 30.4658C32.614 30.5543 32.5097 30.7165 32.4055 30.9376C32.3161 31.1735 32.2268 31.4979 32.1672 31.9254C32.1076 32.353 32.1076 32.8985 32.1076 33.5767Z" fill="#40DDB6"/>
<path d="M41.9664 30.525C41.6984 30.525 41.4601 30.584 41.2516 30.6872C41.0431 30.7904 40.8644 30.9231 40.7155 31.0558C40.5517 31.218 40.4176 31.3949 40.2836 31.5866V36.4961L41.0878 36.6877V36.8794H37.335V36.6877L38.1392 36.4961V30.6577L37.335 30.4661V30.2744H38.5412C38.854 30.2744 39.1071 30.3334 39.3156 30.4366C39.5092 30.5398 39.673 30.6577 39.7922 30.7757C39.9262 30.9231 40.0305 31.0853 40.09 31.2622C40.2241 31.0705 40.3879 30.8936 40.5815 30.7314C40.7453 30.5988 40.9538 30.4808 41.207 30.3629C41.4601 30.2449 41.7431 30.2007 42.0856 30.2007C42.5621 30.2007 42.9196 30.3186 43.1578 30.525C43.3961 30.7462 43.5003 31.0558 43.5003 31.4539C43.5003 31.7487 43.411 31.9994 43.2323 32.1763C43.0536 32.3532 42.8004 32.4417 42.5026 32.4417C42.4281 32.4417 42.3685 32.4417 42.2941 32.4417C42.2196 32.4417 42.1749 32.4269 42.1303 32.4269C42.0707 32.4122 42.0111 32.4122 41.9664 32.3827V30.525Z" fill="#40DDB6"/>
<path d="M49.2633 32.2502C49.2633 31.9554 49.2335 31.69 49.1739 31.4688C49.1143 31.2477 49.0399 31.0708 48.9357 30.9381C48.8463 30.7906 48.7421 30.6874 48.608 30.6285C48.4889 30.5695 48.3697 30.5253 48.2506 30.5253C48.0421 30.5253 47.8634 30.5842 47.7145 30.6874C47.5656 30.7906 47.4316 30.9233 47.3422 31.056C47.2231 31.2182 47.1337 31.3951 47.0443 31.5868V36.4963L47.8485 36.688V36.8796H44.0957V36.688L44.8999 36.4963V30.6579L44.0957 30.4663V30.2746H45.302C45.6147 30.2746 45.8679 30.3336 46.0764 30.4368C46.27 30.54 46.4338 30.6579 46.5529 30.7759C46.6869 30.9233 46.7912 31.0855 46.8507 31.2624C46.9699 31.0413 47.1188 30.8349 47.2975 30.6579C47.4464 30.5105 47.6549 30.3778 47.8932 30.2451C48.1315 30.1124 48.4442 30.0535 48.8016 30.0535C49.1888 30.0535 49.5463 30.1124 49.859 30.2451C50.1866 30.3631 50.4547 30.54 50.678 30.7317C50.9014 30.9381 51.0802 31.1592 51.2142 31.4246C51.3482 31.69 51.4078 31.9554 51.4078 32.2355V36.4816L52.2119 36.6732V36.8649H50.4696C49.6654 36.8649 49.2633 36.4668 49.2633 35.6707V32.2502Z" fill="#40DDB6"/>
<path d="M1.41504 46.1974V45.6519H11.7651V46.1974L9.59086 46.7429V57.8741H17.3944V46.7429L15.2201 46.1974V45.6519H25.5703V46.1974L23.396 46.7429V69.7424L25.5703 70.2879V70.8334H15.2201V70.2732L17.3944 69.7277V58.7734H9.59086V69.7277L11.7651 70.2732V70.8187H1.41504V70.2732L3.58929 69.7277V46.7281L1.41504 46.1974Z" fill="#37393F"/>
<path d="M38.4368 52.301C39.9409 52.301 41.2812 52.5222 42.4726 52.9497C43.6639 53.3773 44.6617 54.0113 45.4957 54.8369C46.3297 55.6625 46.97 56.665 47.4019 57.8445C47.8338 59.024 48.0572 60.3509 48.0572 61.84C48.0572 63.329 47.8338 64.6559 47.4019 65.8354C46.97 67.0149 46.3297 68.0027 45.4957 68.8283C44.6617 69.6539 43.6491 70.2879 42.4726 70.7154C41.2812 71.143 39.9409 71.3641 38.4368 71.3641C36.9327 71.3641 35.5924 71.143 34.401 70.7154C33.2096 70.2879 32.2118 69.6539 31.3779 68.8283C30.5439 68.0027 29.9035 67.0001 29.4717 65.8354C29.0398 64.6559 28.8164 63.329 28.8164 61.84C28.8164 60.3509 29.0398 59.024 29.4717 57.8445C29.9035 56.665 30.5439 55.6772 31.3779 54.8369C32.2118 53.9965 33.2245 53.3773 34.401 52.9497C35.5924 52.5222 36.9327 52.301 38.4368 52.301ZM38.4368 70.627C38.8538 70.627 39.2559 70.4943 39.6729 70.2289C40.0898 69.9635 40.4472 69.5065 40.7749 68.843C41.1025 68.1796 41.3706 67.2802 41.5791 66.145C41.7876 65.0098 41.8918 63.5649 41.8918 61.8105C41.8918 60.056 41.7876 58.6112 41.5791 57.4759C41.3706 56.3407 41.1025 55.4414 40.7749 54.7779C40.4472 54.1145 40.075 53.6574 39.6729 53.392C39.2708 53.1267 38.8538 52.994 38.4368 52.994C38.0198 52.994 37.6177 53.1267 37.2007 53.392C36.7838 53.6574 36.4263 54.1145 36.0987 54.7779C35.7711 55.4414 35.503 56.3407 35.2945 57.4759C35.086 58.6112 34.9818 60.056 34.9818 61.8105C34.9818 63.5649 35.086 65.0098 35.2945 66.145C35.503 67.2802 35.7711 68.1796 36.0987 68.843C36.4263 69.5065 36.7987 69.9635 37.2007 70.2289C37.6177 70.4943 38.0198 70.627 38.4368 70.627Z" fill="#37393F"/>
<path d="M75.2653 58.2283C75.2653 57.3732 75.1909 56.636 75.042 56.061C74.893 55.486 74.7143 54.9995 74.4761 54.6309C74.2378 54.2623 73.9846 53.9969 73.7165 53.82C73.4336 53.6578 73.1655 53.5694 72.8975 53.5694C72.4358 53.5694 72.0337 53.7168 71.6763 54.0117C71.3189 54.3066 71.0211 54.6457 70.753 54.9995C70.47 55.427 70.202 55.9136 69.9935 56.4296V69.7281L72.1826 70.2736V70.8191H62.0261V70.2736L64.2004 69.7281V58.2283C64.2004 57.3732 64.1259 56.636 63.977 56.061C63.8281 55.486 63.6494 54.9995 63.4111 54.6309C63.1728 54.2623 62.9197 53.9969 62.6516 53.82C62.3687 53.6578 62.1006 53.5694 61.8325 53.5694C61.3709 53.5694 60.9688 53.7168 60.6114 54.0117C60.254 54.3066 59.9561 54.6457 59.688 54.9995C59.3902 55.427 59.137 55.9136 58.9286 56.4296V69.7281L61.1028 70.2736V70.8191H50.9463V70.2736L53.1206 69.7281V53.9232L50.9463 53.3777V52.8322H54.2077C55.0566 52.8322 55.7565 52.9797 56.2926 53.2598C56.8436 53.5399 57.2606 53.8642 57.5883 54.1886C57.9457 54.6014 58.2137 55.0437 58.3924 55.5155C58.7051 54.911 59.0923 54.3803 59.554 53.8937C59.971 53.4809 60.4774 53.1123 61.073 52.7732C61.6836 52.4341 62.4133 52.272 63.292 52.272C64.7365 52.272 66.0023 52.5963 67.0448 53.2303C68.1021 53.8643 68.9064 54.6899 69.4574 55.6924C69.7701 55.0732 70.1573 54.513 70.619 53.9969C71.036 53.5694 71.5423 53.1713 72.138 52.8175C72.7485 52.4636 73.4783 52.272 74.3569 52.272C75.3547 52.272 76.2482 52.4341 77.0822 52.7438C77.9013 53.0534 78.6161 53.4809 79.2118 54.0264C79.8075 54.5719 80.2691 55.1912 80.5967 55.9136C80.9244 56.636 81.0882 57.4026 81.0882 58.2135V69.7133L83.2625 70.2588V70.8043H78.5416C76.3673 70.8043 75.2802 69.7281 75.2802 67.5755V58.2283H75.2653Z" fill="#37393F"/>
<path d="M95.2356 71.3497C92.1381 71.3497 89.7255 70.5094 88.0129 68.8139C86.3003 67.1184 85.4365 64.8037 85.4365 61.8255C85.4365 60.3365 85.6599 59.0096 86.0918 57.8301C86.5237 56.6506 87.1342 55.6628 87.9086 54.8225C88.683 53.9968 89.6213 53.3629 90.7233 52.9353C91.8253 52.5078 93.0316 52.2866 94.3272 52.2866C95.6824 52.2866 96.9036 52.4783 97.9758 52.8616C99.0481 53.2449 99.9714 53.761 100.716 54.4097C101.461 55.0584 102.041 55.825 102.443 56.6949C102.846 57.5647 103.039 58.4936 103.039 59.4814C103.039 59.8205 103.024 60.1153 102.98 60.366C102.935 60.6166 102.905 60.8377 102.846 61.0294C102.771 61.2653 102.712 61.4717 102.667 61.6339C101.595 61.855 100.478 62.032 99.2863 62.1794C98.2737 62.3268 97.0972 62.4448 95.7717 62.5627C94.4463 62.6659 93.0465 62.7249 91.6019 62.7249C91.6019 64.214 91.7062 65.4524 91.9296 66.4402C92.1529 67.428 92.4508 68.2241 92.838 68.8139C93.2252 69.4036 93.6868 69.8164 94.2229 70.0671C94.7591 70.3177 95.3399 70.4504 95.9653 70.4504C96.6951 70.4504 97.3801 70.3177 98.0205 70.0523C98.6609 69.7869 99.2119 69.4331 99.6884 68.9908C100.165 68.5485 100.537 68.0472 100.82 67.487C101.103 66.9267 101.237 66.3517 101.237 65.7768H102.146C102.146 66.4992 101.982 67.1921 101.654 67.8556C101.327 68.5338 100.865 69.1235 100.254 69.6395C99.6437 70.1555 98.9289 70.5683 98.0801 70.8779C97.2163 71.1875 96.2632 71.3497 95.2356 71.3497ZM91.6019 61.8255C92.421 61.8255 93.1507 61.8108 93.7762 61.7666C94.4017 61.7223 94.9378 61.6929 95.3697 61.6486C95.876 61.6044 96.3079 61.5454 96.6802 61.4717C96.7249 61.2358 96.7844 60.9704 96.8589 60.6756C96.9036 60.4102 96.9482 60.1153 96.978 59.791C97.0078 59.4666 97.0376 59.1275 97.0376 58.7737C97.0376 57.6974 96.9482 56.7981 96.7844 56.0609C96.6206 55.3237 96.3972 54.734 96.144 54.277C95.8909 53.8199 95.5931 53.4956 95.2803 53.3039C94.9527 53.1122 94.625 53.009 94.3123 53.009C93.9995 53.009 93.6719 53.127 93.3443 53.3481C93.0167 53.584 92.7337 54.0116 92.4806 54.6455C92.2274 55.2795 92.0189 56.1789 91.8402 57.3288C91.6913 58.4788 91.6019 59.9826 91.6019 61.8255Z" fill="#37393F"/>
<path d="M120.865 70.45V55.8689L107.85 45.6665V70.45H120.865Z" fill="#6B77E5"/>
<path d="M136.964 70.45V55.8689L124.156 45.6665V70.45H136.964Z" fill="#6B77E5"/>
<path d="M340.335 83.0231C340.505 83.0142 340.665 82.9072 340.728 82.7468C342.858 77.55 346.049 62.04 346.067 57.9486C346.147 40.2814 344.427 35.7621 338.749 20.8048L337.777 18.2465C337.688 18.0148 337.429 17.89 337.198 17.9791C336.966 18.0682 336.841 18.3267 336.93 18.5585L337.902 21.1168C343.535 35.9582 345.238 40.4419 345.158 57.9397C345.14 61.9687 341.984 77.2648 339.881 82.3991C339.783 82.6309 339.899 82.8983 340.13 82.9874C340.202 83.0142 340.264 83.0231 340.335 83.0231Z" fill="#40DDB6"/>
<path d="M345.149 62.8957C345.193 62.8957 345.238 62.8868 345.283 62.869C345.514 62.7799 345.639 62.5214 345.55 62.2896C344.587 59.6689 342.252 57.289 340.701 55.7023L340.371 55.3636C339.515 54.49 337.519 52.1457 336.939 51.085C336.672 50.5947 336.413 50.1401 336.164 49.7033C334.452 46.6815 333.427 44.8542 333.008 39.8625C332.99 39.6129 332.777 39.4168 332.518 39.4524C332.268 39.4703 332.081 39.6931 332.108 39.9427C332.545 45.1305 333.668 47.1272 335.379 50.149C335.62 50.5769 335.879 51.0315 336.146 51.5217C336.779 52.6627 338.82 55.0694 339.729 55.9965L340.059 56.3352C341.646 57.9486 343.812 60.1592 344.703 62.5927C344.775 62.7888 344.962 62.9047 345.149 62.8957Z" fill="#40DDB6"/>
<path d="M345.496 45.4693C345.648 45.4604 345.799 45.3712 345.871 45.2197C347.208 42.5901 348.536 39.9071 349.802 37.2507C351.174 34.3627 352.458 31.2963 351.709 28.2567C351.647 28.016 351.406 27.8645 351.165 27.9269C350.925 27.9893 350.773 28.23 350.836 28.4706C351.513 31.225 350.292 34.122 348.991 36.8585C347.725 39.5059 346.406 42.1801 345.068 44.8007C344.953 45.0236 345.042 45.2999 345.265 45.4069C345.345 45.4604 345.416 45.4693 345.496 45.4693Z" fill="#40DDB6"/>
<path d="M339.178 17.6287C341.319 15.2171 341.099 11.5269 338.687 9.38648C336.276 7.24603 332.585 7.46586 330.445 9.87749C328.305 12.2891 328.524 15.9793 330.936 18.1198C333.348 20.2602 337.038 20.0404 339.178 17.6287Z" fill="#40DDB6"/>
<path d="M345.817 24.9142C345.96 27.3655 348.063 29.2463 350.515 29.1037C352.966 28.961 354.847 26.8574 354.704 24.4061C354.562 21.9548 352.458 20.074 350.007 20.2166C347.546 20.3592 345.675 22.4629 345.817 24.9142Z" fill="#40DDB6"/>
<path d="M327.891 36.4669C328.034 38.9182 330.138 40.799 332.598 40.6564C335.049 40.5138 336.93 38.4101 336.787 35.9588C336.645 33.5075 334.541 31.6267 332.09 31.7693C329.63 31.903 327.749 34.0067 327.891 36.4669Z" fill="#40DDB6"/>
<path d="M333.329 33.0076C333.543 32.9987 333.721 32.8382 333.748 32.6243C333.872 31.7953 334.3 30.1284 334.657 29.3262C334.755 29.0944 334.657 28.827 334.425 28.729C334.193 28.6309 333.926 28.729 333.828 28.9607C333.436 29.8521 332.981 31.5903 332.856 32.4995C332.821 32.7491 332.99 32.9809 333.24 33.0165C333.266 33.0076 333.302 33.0165 333.329 33.0076Z" fill="#40DDB6"/>
<path d="M331.003 33.3732C331.146 33.3643 331.288 33.2841 331.369 33.1593C331.493 32.9454 331.431 32.669 331.217 32.5353C331.19 32.5086 330.994 32.2857 330.843 31.0378C330.807 30.6991 330.843 30.3871 330.887 30.0573C330.923 29.7631 330.967 29.469 330.958 29.1303C330.95 28.8807 330.745 28.6846 330.495 28.6846C330.272 28.6846 330.049 28.8985 330.049 29.1481C330.058 29.4333 330.023 29.6918 329.987 29.9414C329.942 30.3158 329.889 30.6991 329.942 31.1448C330.094 32.4105 330.335 33.0612 330.745 33.3108C330.825 33.3554 330.914 33.3732 331.003 33.3732Z" fill="#40DDB6"/>
<path d="M330.138 34.1583C330.209 34.1583 330.29 34.1316 330.352 34.087C330.566 33.9533 330.628 33.677 330.495 33.4631C329.434 31.7694 328.551 30.7176 327.803 30.2363C327.589 30.1026 327.312 30.165 327.179 30.3789C327.045 30.5928 327.107 30.8691 327.321 31.0029C327.945 31.404 328.756 32.3934 329.728 33.9444C329.817 34.087 329.978 34.1673 330.138 34.1583Z" fill="#40DDB6"/>
<path d="M351.576 21.839C351.772 21.8301 351.932 21.6785 351.968 21.4824C352.075 20.7158 352.476 19.1827 352.806 18.4339C352.895 18.22 352.806 17.9793 352.592 17.8812C352.378 17.7921 352.137 17.8812 352.039 18.0952C351.682 18.9152 351.264 20.5197 351.139 21.3576C351.103 21.5894 351.264 21.7944 351.495 21.8301C351.513 21.839 351.54 21.839 351.576 21.839Z" fill="#40DDB6"/>
<path d="M350.336 22.1151C350.47 22.1062 350.595 22.0349 350.666 21.9101C350.782 21.714 350.72 21.4555 350.524 21.3396C350.497 21.3129 350.319 21.1079 350.176 19.958C350.131 19.5658 350.167 19.2181 350.212 18.7368C350.238 18.505 350.256 18.2465 350.283 17.9346C350.301 17.7028 350.122 17.5067 349.891 17.4889C349.659 17.4799 349.463 17.6493 349.445 17.8811C349.427 18.1752 349.4 18.4337 349.374 18.6566C349.32 19.1647 349.284 19.5747 349.338 20.056C349.472 21.2237 349.695 21.821 350.078 22.0527C350.167 22.1062 350.256 22.124 350.336 22.1151Z" fill="#40DDB6"/>
<path d="M349.534 22.8374C349.605 22.8374 349.667 22.8106 349.73 22.775C349.926 22.6502 349.988 22.3917 349.864 22.1956C348.892 20.6357 348.081 19.6641 347.386 19.2273C347.189 19.1025 346.931 19.1649 346.806 19.3521C346.681 19.5482 346.744 19.8067 346.931 19.9315C347.51 20.2969 348.259 21.2151 349.15 22.6413C349.24 22.775 349.382 22.8463 349.534 22.8374Z" fill="#40DDB6"/>
<path d="M332.099 9.5378C332.179 9.52888 332.25 9.51105 332.322 9.46649C332.527 9.32387 332.589 9.04754 332.446 8.84252C331.974 8.13833 331.19 6.62298 330.913 5.78509C330.833 5.54441 330.574 5.41962 330.343 5.49984C330.102 5.58007 329.977 5.83857 330.057 6.07033C330.361 6.98845 331.19 8.58402 331.698 9.35061C331.787 9.4754 331.938 9.54671 332.099 9.5378Z" fill="#40DDB6"/>
<path d="M331.412 10.4115C331.448 10.4115 331.484 10.4026 331.519 10.3937C331.769 10.3491 331.929 10.1085 331.876 9.86779C331.831 9.6182 331.582 9.45775 331.35 9.51123C331.305 9.51123 331.011 9.47558 330.066 8.64659C329.808 8.42375 329.63 8.16525 329.442 7.88892C329.273 7.64825 329.104 7.39866 328.872 7.14908C328.703 6.96189 328.417 6.95297 328.23 7.13125C328.043 7.30061 328.034 7.58585 328.212 7.77304C328.408 7.97806 328.551 8.19199 328.703 8.40592C328.916 8.71791 329.139 9.0388 329.478 9.33296C330.361 10.0995 330.958 10.4383 331.412 10.4115Z" fill="#40DDB6"/>
<path d="M331.341 11.5697C331.529 11.5608 331.698 11.436 331.751 11.2399C331.823 10.9992 331.68 10.7496 331.439 10.6783C329.523 10.1346 328.159 9.93847 327.286 10.0811C327.036 10.1257 326.876 10.3574 326.911 10.607C326.956 10.8566 327.188 11.026 327.437 10.9814C328.168 10.8566 329.434 11.0527 331.199 11.5519C331.243 11.5608 331.288 11.5697 331.341 11.5697Z" fill="#40DDB6"/>
<path d="M343.116 70.7934C342.064 70.7577 340.174 70.0981 339.488 69.1176C339.345 68.9126 338.623 67.8429 338.472 67.0407C338.302 66.1137 338.302 65.3381 338.472 64.2596C338.712 62.7621 338.766 62.6997 339.024 62.6016C339.185 62.5392 339.381 62.4679 340.78 63.4395C342.447 64.5894 344.016 67.3972 343.767 70.0981C343.758 70.2318 343.686 70.3477 343.588 70.419C343.553 70.6329 343.383 70.7934 343.169 70.8023C343.143 70.7934 343.134 70.7934 343.116 70.7934ZM339.363 64.4022C339.203 65.3827 339.203 66.0513 339.354 66.8713C339.434 67.3259 339.853 68.0658 340.228 68.6006C340.638 69.18 341.948 69.7416 342.866 69.8664C343.018 67.5755 341.654 65.151 340.263 64.1883C340.165 64.117 339.791 63.8852 339.488 63.698C339.443 63.9476 339.39 64.2418 339.363 64.4022Z" fill="#40DDB6"/>
<path d="M333.9 54.2228C333.677 54.2049 332.536 54.0712 331.894 53.7058C331.172 53.2868 330.637 52.8322 330.013 52.0924C329.166 51.0851 329.122 51.0138 329.211 50.7553C329.265 50.6127 329.327 50.4433 330.798 50.0511C332.554 49.5876 335.362 50.1581 337.037 51.8962C337.118 51.9854 337.153 52.0924 337.153 52.1993C337.287 52.3509 337.287 52.5826 337.144 52.7341C336.565 53.367 335.237 54.1693 334.194 54.2228C334.096 54.2317 333.998 54.2317 333.9 54.2228ZM331.012 50.8355C330.905 50.8622 330.53 50.9781 330.227 51.0762C330.343 51.2188 330.486 51.3882 330.637 51.5664C331.208 52.2439 331.662 52.6272 332.313 53.0016C332.67 53.2066 333.409 53.3581 333.989 53.4116C334.622 53.4829 335.754 52.9124 336.378 52.3598C334.907 50.9336 332.473 50.4522 331.012 50.8355Z" fill="#40DDB6"/>
<path d="M336.618 51.9674C336.52 51.9228 336.44 51.8337 336.413 51.7178C335.754 49.3913 336.69 46.6815 337.973 45.3979C339.043 44.3193 339.239 44.355 339.382 44.3817C339.631 44.4263 339.685 44.4798 340.13 45.7455C340.451 46.6637 340.576 47.35 340.576 48.1879C340.576 48.9189 340.104 49.9707 340.015 50.1757C339.569 51.1473 338.018 52.0298 337.1 52.2259C337.082 52.2348 337.055 52.2348 337.037 52.2348C336.841 52.2526 336.672 52.1367 336.618 51.9674ZM338.535 45.9684C337.465 47.038 336.654 49.3824 337.153 51.3701C337.947 51.1116 339.007 50.4075 339.266 49.837C339.507 49.3111 339.756 48.598 339.756 48.1879C339.756 47.4392 339.649 46.8508 339.355 46.0219C339.293 45.8436 339.212 45.6207 339.132 45.4157C338.9 45.6297 338.606 45.8971 338.535 45.9684Z" fill="#40DDB6"/>
<path d="M345.719 54.3121C345.514 54.2765 345.381 54.0893 345.39 53.8843C345.318 53.804 345.283 53.6882 345.3 53.5723C345.621 51.1834 347.556 49.0619 349.24 48.3934C350.658 47.8318 350.809 47.9388 350.934 48.019C351.148 48.1616 351.175 48.2329 351.085 49.57C351.014 50.5416 350.863 51.219 350.524 51.9856C350.239 52.6363 349.454 53.3762 349.214 53.5901C348.67 54.0715 347.68 54.3211 346.816 54.3656C346.406 54.3924 346.014 54.3745 345.719 54.3121ZM349.543 49.1421C348.135 49.6948 346.459 51.531 346.129 53.5545C346.958 53.6258 348.206 53.4118 348.679 52.984C349.107 52.5918 349.624 52.0391 349.784 51.6558C350.087 50.9695 350.221 50.3901 350.283 49.5076C350.292 49.3204 350.31 49.0797 350.319 48.8658C350.007 48.9728 349.641 49.1065 349.543 49.1421Z" fill="#40DDB6"/>
<path d="M348.714 38.846C348.544 38.748 348.482 38.543 348.562 38.3736C348.526 38.2756 348.526 38.1686 348.58 38.0705C349.578 36.1006 351.869 34.8348 353.536 34.7457C353.554 34.7457 353.572 34.7457 353.589 34.7457C354.989 34.6833 355.105 34.8259 355.185 34.9329C355.337 35.129 355.319 35.2092 354.846 36.3324C354.49 37.1613 354.151 37.7051 353.625 38.2667C353.162 38.7658 352.19 39.1848 352.003 39.265C351.789 39.3541 351.539 39.4076 351.263 39.4165C350.363 39.4789 349.284 39.1848 348.714 38.846ZM353.607 35.4945C352.181 35.5747 350.193 36.6443 349.293 38.3112C349.997 38.6321 351.156 38.8193 351.691 38.5875C352.181 38.3825 352.796 38.0438 353.055 37.7675C353.527 37.2594 353.821 36.7959 354.142 36.0382C354.231 35.8243 354.311 35.6371 354.365 35.4945C354.062 35.4855 353.705 35.4855 353.607 35.4945Z" fill="#40DDB6"/>
<path d="M348.268 38.6145C347.413 38.463 345.942 37.7231 345.487 36.8496C345.389 36.6624 344.917 35.7175 344.881 35.0401C344.845 34.2646 344.926 33.6317 345.184 32.767C345.541 31.5815 345.585 31.528 345.817 31.4745C345.951 31.4389 346.12 31.4032 347.163 32.3481C348.402 33.4712 349.374 35.9403 348.866 38.1153C348.839 38.2223 348.776 38.3114 348.687 38.356C348.643 38.5075 348.509 38.6145 348.349 38.6234C348.331 38.6145 348.295 38.6145 348.268 38.6145ZM345.906 32.9721C345.674 33.7565 345.594 34.3002 345.63 34.9866C345.648 35.361 345.906 36.0117 346.147 36.493C346.414 37.01 347.421 37.6161 348.161 37.8212C348.536 35.9671 347.689 33.8367 346.655 32.8918C346.584 32.8294 346.307 32.5888 346.076 32.4105C346.022 32.5977 345.96 32.8116 345.906 32.9721Z" fill="#40DDB6"/>
<path d="M337.028 26.9644C336.769 26.8396 335.887 26.376 335.468 25.868C334.978 25.2707 334.666 24.7092 334.363 23.8623C333.944 22.6857 333.953 22.6233 334.104 22.4451C334.193 22.3381 334.309 22.2044 335.709 22.3559C337.375 22.5253 339.622 23.9337 340.504 25.9838C340.549 26.0819 340.54 26.1889 340.504 26.2869C340.567 26.4652 340.495 26.6613 340.317 26.7504C339.88 26.9733 339.176 27.1515 338.481 27.1961C337.946 27.205 337.42 27.1515 337.028 26.9644ZM335.628 23.0868C335.53 23.0779 335.165 23.0512 334.871 23.0423C334.924 23.2116 334.995 23.4167 335.058 23.6038C335.334 24.3704 335.602 24.8518 336.038 25.3866C336.279 25.6808 336.867 26.0551 337.349 26.2869C337.875 26.5454 339.042 26.4295 339.755 26.1532C338.971 24.4417 337.019 23.2295 335.628 23.0868Z" fill="#40DDB6"/>
<path d="M340.006 25.9662C339.926 25.9038 339.863 25.8147 339.854 25.7077C339.605 23.4882 340.853 21.1528 342.208 20.1811C343.34 19.3611 343.527 19.4235 343.643 19.468C343.874 19.5483 343.901 19.6285 344.124 20.8229C344.284 21.7054 344.293 22.3472 344.169 23.1138C344.062 23.7645 343.527 24.6024 343.357 24.8431C342.805 25.6631 341.263 26.2336 340.398 26.2782C340.193 26.2871 340.033 26.1534 340.006 25.9662ZM342.644 20.7784C341.512 21.5984 340.416 23.613 340.585 25.5027C341.343 25.3868 342.413 24.9055 342.742 24.4152C343.045 23.9695 343.375 23.3545 343.438 22.9801C343.554 22.2937 343.545 21.75 343.393 20.9388C343.349 20.716 343.313 20.5199 343.286 20.3594C343.028 20.5288 342.725 20.7249 342.644 20.7784Z" fill="#40DDB6"/>
<path d="M343.58 70.2587C343.402 70.1161 343.357 69.8576 343.482 69.6615C343.455 69.5456 343.482 69.4119 343.553 69.3049C345.131 67.1032 348.162 66.0157 350.167 66.2475C351.861 66.4347 351.968 66.6308 352.048 66.7734C352.182 67.023 352.173 67.1121 351.38 68.3868C350.8 69.3138 350.292 69.9021 349.552 70.4815C348.911 70.9896 347.663 71.3194 347.422 71.3818C347.297 71.4175 347.154 71.4353 347.012 71.4442C345.862 71.4977 344.311 70.847 343.58 70.2587ZM350.078 67.1389C348.385 66.9517 345.764 67.8787 344.382 69.7149C345.158 70.223 346.522 70.6687 347.208 70.4904C347.841 70.33 348.634 70.0448 349 69.7595C349.659 69.2425 350.096 68.7344 350.622 67.8965C350.72 67.745 350.863 67.4954 350.996 67.2815C350.631 67.2191 350.194 67.1567 350.078 67.1389Z" fill="#40DDB6"/>
<path d="M301.453 98.9699C314.984 98.9699 327.624 93.6127 337.037 83.8789L335.531 82.417C326.519 91.7409 314.423 96.8663 301.462 96.8663C275.336 96.8663 254.076 75.6069 254.076 49.4805C254.076 23.3542 275.318 2.09474 301.453 2.09474C308.317 2.09474 314.94 3.52987 321.126 6.35554L322 4.4569C315.537 1.49752 308.62 0 301.453 0C274.159 0 251.964 22.1954 251.964 49.4894C251.964 76.7835 274.159 98.9699 301.453 98.9699Z" fill="#6B77E5"/>
<path d="M270.915 34.8615C270.237 34.4871 269.702 33.9612 269.31 33.2837C268.918 32.6063 268.713 31.8486 268.713 31.0107C268.713 30.1728 268.909 29.4151 269.31 28.7466C269.702 28.0781 270.237 27.5522 270.915 27.1778C271.592 26.8034 272.332 26.6162 273.134 26.6162C273.945 26.6162 274.685 26.8034 275.354 27.1778C276.031 27.5522 276.557 28.0781 276.949 28.7466C277.341 29.4151 277.529 30.1728 277.529 31.0107C277.529 31.8486 277.333 32.6063 276.94 33.2837C276.548 33.9612 276.013 34.4782 275.345 34.8615C274.676 35.2359 273.936 35.423 273.125 35.423C272.323 35.423 271.583 35.2359 270.915 34.8615ZM274.783 32.8291C275.193 32.3745 275.398 31.7684 275.398 31.0196C275.398 30.262 275.193 29.6558 274.783 29.2012C274.373 28.7466 273.82 28.5238 273.134 28.5238C272.439 28.5238 271.886 28.7466 271.476 29.2012C271.066 29.6469 270.861 30.262 270.861 31.0285C270.861 31.7862 271.066 32.3924 271.476 32.847C271.886 33.3016 272.439 33.5244 273.134 33.5244C273.82 33.5155 274.373 33.2837 274.783 32.8291Z" fill="#37393F"/>
<path d="M289.206 35.343L287.414 32.0984H286.915V35.343H284.82V26.7412H288.332C289.01 26.7412 289.589 26.8571 290.062 27.0978C290.543 27.3384 290.9 27.6593 291.131 28.0694C291.363 28.4794 291.488 28.9429 291.488 29.451C291.488 30.0215 291.327 30.5296 291.006 30.9842C290.686 31.4388 290.204 31.7508 289.58 31.938L291.568 35.343H289.206ZM286.915 30.6098H288.216C288.6 30.6098 288.885 30.5117 289.081 30.3246C289.268 30.1374 289.366 29.87 289.366 29.5312C289.366 29.2014 289.268 28.9518 289.081 28.7557C288.885 28.5685 288.6 28.4705 288.216 28.4705H286.915V30.6098Z" fill="#37393F"/>
<path d="M304.635 29.4593C304.483 29.1741 304.261 28.9513 303.966 28.7997C303.672 28.6482 303.334 28.5769 302.941 28.5769C302.264 28.5769 301.72 28.7997 301.31 29.2454C300.9 29.6911 300.695 30.2883 300.695 31.0282C300.695 31.8215 300.909 32.4365 301.337 32.8822C301.765 33.3279 302.353 33.5508 303.111 33.5508C303.628 33.5508 304.065 33.4171 304.412 33.1586C304.769 32.9001 305.027 32.5257 305.188 32.0354H302.531V30.4933H307.086V32.4455C306.935 32.9714 306.667 33.4527 306.293 33.9073C305.919 34.353 305.446 34.7185 304.876 34.9948C304.305 35.2711 303.654 35.4138 302.941 35.4138C302.095 35.4138 301.337 35.2266 300.668 34.8522C300 34.4778 299.483 33.9608 299.108 33.3012C298.734 32.6416 298.547 31.8839 298.547 31.0371C298.547 30.1903 298.734 29.4326 299.108 28.7641C299.483 28.0955 300 27.5785 300.659 27.2041C301.319 26.8298 302.077 26.6426 302.924 26.6426C303.949 26.6426 304.822 26.8922 305.526 27.3913C306.231 27.8905 306.703 28.5769 306.926 29.4593H304.635Z" fill="#37393F"/>
<path d="M274.418 49.8367H271.209L270.692 51.3521H268.499L271.61 42.7502H274.034L277.145 51.3521H274.926L274.418 49.8367ZM273.883 48.2233L272.813 45.0767L271.761 48.2233H273.883Z" fill="#37393F"/>
<path d="M291.915 51.3606H289.821L286.317 46.0569V51.3606H284.223V42.7588H286.317L289.821 48.0892V42.7588H291.915V51.3606Z" fill="#37393F"/>
<path d="M301.649 42.7588V51.3606H299.555V42.7588H301.649Z" fill="#37393F"/>
<path d="M269.266 60.7914C269.631 60.1229 270.148 59.6059 270.799 59.2315C271.449 58.8571 272.198 58.6699 273.036 58.6699C274.061 58.6699 274.935 58.9373 275.657 59.4811C276.388 60.0159 276.869 60.7557 277.119 61.6828H274.819C274.649 61.3262 274.409 61.0499 274.088 60.8627C273.776 60.6755 273.419 60.5775 273.018 60.5775C272.376 60.5775 271.851 60.8003 271.449 61.2549C271.048 61.7006 270.852 62.3068 270.852 63.0555C270.852 63.8043 271.048 64.4104 271.449 64.8561C271.851 65.3018 272.376 65.5335 273.018 65.5335C273.419 65.5335 273.776 65.4444 274.088 65.2483C274.4 65.0611 274.641 64.7848 274.819 64.4282H277.119C276.878 65.3553 276.388 66.0951 275.657 66.6299C274.926 67.1648 274.052 67.4322 273.036 67.4322C272.207 67.4322 271.458 67.245 270.799 66.8706C270.139 66.4962 269.631 65.9792 269.266 65.3196C268.9 64.66 268.713 63.9023 268.713 63.0555C268.713 62.2176 268.9 61.4599 269.266 60.7914Z" fill="#37393F"/>
<path d="M289.884 65.855H286.675L286.158 67.3704H283.965L287.076 58.7686H289.5L292.611 67.3704H290.392L289.884 65.855ZM289.34 64.2416L288.27 61.0951L287.218 64.2416H289.34Z" fill="#37393F"/>
<path d="M301.774 65.7567H304.52V67.3701H299.68V58.7683H301.774V65.7567Z" fill="#37393F"/>
<path d="M270.861 75.3045C270.986 75.4561 271.048 75.6343 271.048 75.8304C271.048 75.9998 271.004 76.1424 270.914 76.2761C270.825 76.4098 270.7 76.5168 270.54 76.5881C270.38 76.6683 270.183 76.704 269.97 76.704H268.659V73.4326H269.907C270.13 73.4326 270.326 73.4683 270.487 73.5485C270.647 73.6287 270.772 73.7268 270.852 73.8516C270.932 73.9764 270.977 74.119 270.977 74.2794C270.977 74.4666 270.923 74.6271 270.825 74.7519C270.727 74.8767 270.593 74.9747 270.424 75.0282C270.593 75.0549 270.736 75.1441 270.861 75.3045ZM269.194 74.8053H269.863C270.041 74.8053 270.175 74.7697 270.273 74.6895C270.371 74.6092 270.424 74.4934 270.424 74.3418C270.424 74.1903 270.371 74.0833 270.273 73.9942C270.175 73.914 270.032 73.8694 269.863 73.8694H269.194V74.8053ZM270.353 76.1335C270.46 76.0444 270.504 75.9196 270.504 75.768C270.504 75.6076 270.451 75.4828 270.335 75.3847C270.228 75.2867 270.076 75.2421 269.898 75.2421H269.194V76.2672H269.916C270.103 76.2672 270.246 76.2226 270.353 76.1335Z" fill="#37393F"/>
<path d="M274.641 76.5254C274.382 76.3827 274.186 76.1866 274.034 75.9281C273.883 75.6696 273.812 75.3844 273.812 75.0635C273.812 74.7426 273.883 74.4573 274.034 74.1988C274.186 73.9403 274.382 73.7442 274.641 73.6016C274.899 73.459 275.175 73.3877 275.478 73.3877C275.79 73.3877 276.067 73.459 276.325 73.6016C276.584 73.7442 276.78 73.9403 276.931 74.1988C277.083 74.4573 277.154 74.7426 277.154 75.0635C277.154 75.3844 277.083 75.6696 276.931 75.9281C276.78 76.1866 276.584 76.3827 276.325 76.5254C276.067 76.668 275.79 76.7393 275.478 76.7393C275.175 76.7393 274.89 76.668 274.641 76.5254ZM276.058 76.1242C276.227 76.0262 276.361 75.8836 276.459 75.6964C276.557 75.5092 276.602 75.3042 276.602 75.0546C276.602 74.8139 276.557 74.6 276.459 74.4217C276.361 74.2434 276.227 74.1008 276.058 74.0027C275.888 73.9047 275.692 73.8601 275.478 73.8601C275.264 73.8601 275.068 73.9047 274.899 74.0027C274.73 74.1008 274.596 74.2434 274.498 74.4217C274.4 74.6 274.355 74.8139 274.355 75.0546C274.355 75.2952 274.4 75.5092 274.498 75.6964C274.596 75.8836 274.73 76.0173 274.899 76.1242C275.068 76.2223 275.264 76.2758 275.478 76.2758C275.692 76.2758 275.888 76.2223 276.058 76.1242Z" fill="#37393F"/>
<path d="M282.145 73.4326V73.8694H281.272V76.704H280.737V73.8694H279.863V73.4326H282.145Z" fill="#37393F"/>
<path d="M287.022 76.0356H285.649L285.417 76.7041H284.855L286.032 73.4238H286.656L287.833 76.7041H287.271L287.022 76.0356ZM286.87 75.5988L286.335 74.0745L285.8 75.5988H286.87Z" fill="#37393F"/>
<path d="M293.377 76.7041H292.843L291.229 74.2617V76.7041H290.694V73.4238H291.229L292.843 75.8662V73.4238H293.377V76.7041Z" fill="#37393F"/>
<path d="M296.978 73.4326V76.704H296.443V73.4326H296.978Z" fill="#37393F"/>
<path d="M300.08 74.1988C300.232 73.9403 300.428 73.7442 300.687 73.6016C300.945 73.459 301.221 73.3877 301.524 73.3877C301.872 73.3877 302.184 73.4768 302.451 73.6462C302.719 73.8156 302.924 74.0562 303.04 74.3771H302.398C302.318 74.2078 302.193 74.0741 302.041 73.9938C301.89 73.9047 301.721 73.869 301.516 73.869C301.302 73.869 301.105 73.9136 300.936 74.0117C300.767 74.1097 300.633 74.2523 300.535 74.4306C300.437 74.6089 300.392 74.8228 300.392 75.0635C300.392 75.3042 300.437 75.5181 300.535 75.6964C300.633 75.8746 300.767 76.0173 300.936 76.1153C301.105 76.2134 301.302 76.2668 301.516 76.2668C301.712 76.2668 301.89 76.2223 302.041 76.1421C302.193 76.0529 302.309 75.9281 302.398 75.7588H303.04C302.915 76.0707 302.719 76.3114 302.451 76.4808C302.175 76.6501 301.872 76.7393 301.524 76.7393C301.212 76.7393 300.936 76.668 300.678 76.5254C300.419 76.3827 300.223 76.1866 300.071 75.9281C299.92 75.6696 299.849 75.3844 299.849 75.0635C299.849 74.7426 299.929 74.4484 300.08 74.1988Z" fill="#37393F"/>
<path d="M308.014 76.0356H306.641L306.409 76.7041H305.848L307.024 73.4238H307.648L308.825 76.7041H308.263L308.014 76.0356ZM307.862 75.5988L307.327 74.0745L306.793 75.5988H307.862Z" fill="#37393F"/>
<path d="M312.213 76.2672H313.318V76.704H311.678V73.4326H312.213V76.2672Z" fill="#37393F"/>
<path d="M307.043 44.6499V45.6126H308.175V46.0494H307.043V47.0566H308.317V47.4934H306.508V44.2131H308.317V44.6499H307.043Z" fill="#37393F"/>
<path d="M310.875 47.4127C310.697 47.3325 310.563 47.2255 310.465 47.0829C310.367 46.9403 310.313 46.7798 310.313 46.5926H310.884C310.893 46.7353 310.955 46.8511 311.053 46.9403C311.151 47.0294 311.294 47.074 311.472 47.074C311.659 47.074 311.802 47.0294 311.909 46.9403C312.016 46.8511 312.061 46.7353 312.061 46.5926C312.061 46.4857 312.025 46.3965 311.963 46.3252C311.9 46.2539 311.82 46.2004 311.722 46.1648C311.624 46.1291 311.49 46.0846 311.321 46.04C311.107 45.9865 310.937 45.9241 310.804 45.8706C310.67 45.8171 310.554 45.7191 310.465 45.6032C310.367 45.4784 310.322 45.318 310.322 45.113C310.322 44.9258 310.367 44.7564 310.465 44.6138C310.563 44.4712 310.688 44.3642 310.857 44.2929C311.027 44.2216 311.223 44.177 311.446 44.177C311.766 44.177 312.025 44.2572 312.23 44.4177C312.435 44.5781 312.542 44.7921 312.569 45.0684H311.971C311.963 44.9525 311.909 44.8455 311.802 44.7653C311.695 44.6851 311.561 44.6405 311.392 44.6405C311.241 44.6405 311.116 44.6762 311.018 44.7564C310.92 44.8366 310.875 44.9436 310.875 45.0951C310.875 45.1932 310.902 45.2823 310.964 45.3447C311.027 45.4071 311.107 45.4606 311.196 45.4962C311.294 45.5319 311.419 45.5765 311.579 45.621C311.793 45.6834 311.971 45.7369 312.105 45.7993C312.239 45.8617 312.355 45.9508 312.453 46.0756C312.551 46.2004 312.595 46.3609 312.595 46.5748C312.595 46.7442 312.551 46.8957 312.462 47.0472C312.373 47.1988 312.239 47.3147 312.069 47.4038C311.9 47.4929 311.695 47.5375 311.463 47.5375C311.249 47.5286 311.053 47.484 310.875 47.4127Z" fill="#37393F"/>
<path d="M316.767 44.2219V44.6587H315.894V47.4933H315.359V44.6587H314.485V44.2219H316.767Z" fill="#37393F"/>
<path d="M306.739 52.4131C307.042 52.1546 307.274 51.9406 307.452 51.7713C307.63 51.6019 307.773 51.4236 307.889 51.2454C308.005 51.0671 308.067 50.8799 308.067 50.7016C308.067 50.5144 308.023 50.3629 307.933 50.2559C307.844 50.149 307.702 50.0955 307.514 50.0955C307.327 50.0955 307.185 50.1579 307.087 50.2738C306.98 50.3896 306.926 50.5501 306.926 50.7462H306.409C306.418 50.3896 306.525 50.1133 306.73 49.9261C306.935 49.7389 307.194 49.6409 307.514 49.6409C307.853 49.6409 308.121 49.7389 308.317 49.9261C308.513 50.1133 308.611 50.3629 308.611 50.6838C308.611 50.9066 308.557 51.1295 308.442 51.3345C308.326 51.5395 308.192 51.7267 308.031 51.8961C307.871 52.0654 307.675 52.2526 307.425 52.4665L307.211 52.6537H308.7V53.0994H306.409V52.7072L306.739 52.4131Z" fill="#37393F"/>
<path d="M310.849 50.1132C311.036 49.8101 311.348 49.6497 311.802 49.6497C312.257 49.6497 312.569 49.8012 312.747 50.1132C312.934 50.4162 313.024 50.8441 313.024 51.3879C313.024 51.9405 312.934 52.3684 312.747 52.6803C312.56 52.9923 312.248 53.1439 311.802 53.1439C311.357 53.1439 311.036 52.9923 310.849 52.6803C310.661 52.3684 310.572 51.9405 310.572 51.3879C310.572 50.8441 310.661 50.4162 310.849 50.1132ZM312.444 50.7371C312.409 50.5589 312.346 50.4162 312.248 50.3093C312.15 50.2023 311.998 50.1399 311.802 50.1399C311.606 50.1399 311.455 50.1934 311.357 50.3093C311.259 50.4252 311.187 50.5678 311.161 50.7371C311.134 50.9065 311.107 51.1293 311.107 51.3789C311.107 51.6463 311.125 51.8603 311.152 52.0475C311.178 52.2347 311.25 52.3684 311.348 52.4842C311.446 52.5912 311.597 52.6536 311.793 52.6536C311.99 52.6536 312.141 52.6001 312.239 52.4842C312.337 52.3773 312.409 52.2257 312.435 52.0475C312.462 51.8692 312.48 51.6463 312.48 51.3789C312.489 51.1293 312.471 50.9154 312.444 50.7371Z" fill="#37393F"/>
<path d="M315.297 52.4131C315.6 52.1546 315.831 51.9406 316.01 51.7713C316.188 51.6019 316.331 51.4236 316.446 51.2454C316.562 51.0671 316.625 50.8799 316.625 50.7016C316.625 50.5144 316.58 50.3629 316.491 50.2559C316.402 50.149 316.259 50.0955 316.072 50.0955C315.885 50.0955 315.742 50.1579 315.644 50.2738C315.537 50.3896 315.484 50.5501 315.484 50.7462H314.967C314.976 50.3896 315.083 50.1133 315.288 49.9261C315.493 49.7389 315.751 49.6409 316.072 49.6409C316.411 49.6409 316.678 49.7389 316.874 49.9261C317.07 50.1133 317.169 50.3629 317.169 50.6838C317.169 50.9066 317.115 51.1295 316.999 51.3345C316.883 51.5395 316.75 51.7267 316.589 51.8961C316.429 52.0654 316.233 52.2526 315.983 52.4665L315.769 52.6537H317.258V53.0994H314.967V52.7072L315.297 52.4131Z" fill="#37393F"/>
<path d="M319.415 50.1132C319.602 49.8101 319.914 49.6497 320.369 49.6497C320.823 49.6497 321.135 49.8012 321.314 50.1132C321.501 50.4162 321.59 50.8441 321.59 51.3879C321.59 51.9405 321.501 52.3684 321.314 52.6803C321.126 52.9923 320.814 53.1439 320.369 53.1439C319.923 53.1439 319.602 52.9923 319.415 52.6803C319.228 52.3684 319.139 51.9405 319.139 51.3879C319.139 50.8441 319.228 50.4162 319.415 50.1132ZM321.011 50.7371C320.975 50.5589 320.913 50.4162 320.814 50.3093C320.716 50.2023 320.565 50.1399 320.369 50.1399C320.173 50.1399 320.021 50.1934 319.923 50.3093C319.825 50.4252 319.754 50.5678 319.727 50.7371C319.7 50.9065 319.673 51.1293 319.673 51.3789C319.673 51.6463 319.691 51.8603 319.718 52.0475C319.745 52.2347 319.816 52.3684 319.914 52.4842C320.012 52.5912 320.164 52.6536 320.36 52.6536C320.556 52.6536 320.708 52.6001 320.806 52.4842C320.904 52.3773 320.975 52.2257 321.002 52.0475C321.028 51.8692 321.046 51.6463 321.046 51.3789C321.055 51.1293 321.037 50.9154 321.011 50.7371Z" fill="#37393F"/>
<path d="M506.573 71.5753H478.595C473.997 71.5753 470.271 67.8863 470.271 63.3344V35.6355C470.271 31.0836 473.997 27.3945 478.595 27.3945H506.573C511.171 27.3945 514.898 31.0836 514.898 35.6355V63.3344C514.898 67.8863 511.171 71.5753 506.573 71.5753Z" fill="#40DDB6"/>
<path d="M500.623 49.8914C501.419 50.8793 501.823 52.0298 501.823 53.3304C501.823 55.2436 501.179 56.7443 499.891 57.8072C498.602 58.8701 496.758 59.4204 494.358 59.4204H483.874V37.0986H494.106C496.404 37.0986 498.173 37.5988 499.423 38.5868C500.674 39.5747 501.305 40.9877 501.305 42.8135C501.305 44.1641 500.939 45.277 500.219 46.1774C499.499 47.0778 498.552 47.653 497.377 47.9281C498.754 48.2533 499.828 48.9035 500.623 49.8914ZM489.318 46.2274H492.893C494.788 46.2274 495.735 45.4271 495.735 43.8264C495.735 42.2258 494.762 41.4254 492.83 41.4254H489.318V46.2274ZM496.24 52.5801C496.24 51.7797 495.975 51.1545 495.444 50.7043C494.914 50.2541 494.156 50.029 493.183 50.029H489.331V55.0436H493.221C495.23 55.0311 496.24 54.2182 496.24 52.5801Z" fill="white"/>
<path d="M540.754 59.4204L535.878 50.9919H534.64V59.4204H529.184V37.0986H538.493C540.274 37.0986 541.79 37.3988 543.015 38.0115C544.253 38.6243 545.175 39.4621 545.794 40.525C546.413 41.588 546.716 42.801 546.716 44.1766C546.716 45.8022 546.261 47.1778 545.365 48.3158C544.455 49.4538 543.154 50.2291 541.424 50.6543L546.779 59.4329H540.754V59.4204ZM534.64 47.3029H538.013C539.099 47.3029 539.895 47.0653 540.4 46.5901C540.906 46.1149 541.171 45.4146 541.171 44.4892C541.171 43.6013 540.906 42.9135 540.388 42.4008C539.87 41.9006 539.074 41.638 538.013 41.638H534.64V47.3029Z" fill="#37393F"/>
<path d="M571.398 55.3559H562.947L561.545 59.4326H555.811L564.072 37.2734H570.349L578.61 59.4326H572.813L571.398 55.3559ZM569.996 51.2417L567.192 43.0383L564.349 51.2417H569.996Z" fill="#37393F"/>
<path d="M608.711 59.4204H603.254L594.135 45.7147V59.4204H588.678V37.0986H594.135L603.254 50.9294V37.0986H608.711V59.4204Z" fill="#37393F"/>
<path d="M639.305 54.0431C638.358 55.7313 636.994 57.0568 635.225 58.0072C633.444 58.9576 631.36 59.4328 628.96 59.4328H620.446V37.1111H628.96C631.385 37.1111 633.482 37.5738 635.238 38.4992C637.006 39.4245 638.358 40.7251 639.305 42.4133C640.252 44.1015 640.72 46.0273 640.72 48.2282C640.72 50.4041 640.24 52.3424 639.305 54.0431ZM633.431 52.9176C634.606 51.8047 635.2 50.229 635.2 48.2157C635.2 46.1898 634.606 44.6267 633.431 43.5137C632.257 42.4008 630.602 41.838 628.467 41.838H625.89V54.5933H628.467C630.602 54.5933 632.257 54.0431 633.431 52.9176Z" fill="#37393F"/>
<path d="M776.837 35.849L777.953 35.6131C778.236 35.6131 778.475 35.672 778.639 35.79C778.802 35.9079 778.892 36.0259 778.892 36.1291C778.892 36.2323 778.862 36.3945 778.817 36.5861C778.773 36.7778 778.356 38.7534 777.581 42.4835C776.807 46.2135 776.241 49 775.883 50.8282C777.611 48.4987 779.636 45.6385 781.945 42.2328C784.253 38.8271 785.608 36.5714 785.995 35.4509C786.114 35.0971 786.278 34.8317 786.472 34.64C786.665 34.4484 786.844 34.3304 786.993 34.3009C787.142 34.2714 787.38 34.2419 787.693 34.2419C788.006 34.2419 788.378 34.3157 788.81 34.4484C789.242 34.581 789.465 34.8022 789.465 35.1265C789.465 35.7163 788.572 37.4412 786.799 40.272C785.027 43.1027 782.987 46.1103 780.694 49.2949C778.4 52.4794 776.494 55.0005 774.96 56.8582C774.692 57.1825 774.35 57.3595 773.962 57.3595C773.575 57.3595 773.158 57.2857 772.726 57.1531C772.294 57.0204 772.071 56.7845 772.071 56.4306C772.071 55.3249 773.054 49.9878 775.02 40.4489C773.337 42.6014 771.297 45.609 768.899 49.457C766.397 53.4377 764.982 55.9146 764.655 56.8582C764.476 57.4332 764.268 57.7723 764.029 57.8607C763.865 57.9345 763.687 57.9639 763.508 57.9639L762.302 58.0966C762.063 58.0966 761.855 58.0377 761.646 57.905C761.453 57.7723 761.349 57.6396 761.349 57.4922C761.349 57.0941 761.915 55.8851 763.031 53.88C764.148 51.875 765.474 49.6929 766.978 47.334C768.482 44.9751 770.046 42.6899 771.684 40.4636C773.322 38.2374 774.588 36.7336 775.481 35.9817C775.66 35.8195 775.869 35.7458 776.107 35.7458L776.837 35.849Z" fill="#37393F"/>
<path d="M794.737 45.845C795.511 45.845 795.898 46.1104 795.898 46.6264C795.898 46.9066 795.839 47.113 795.705 47.2457C795.57 47.3784 795.288 47.8059 794.856 48.5578C794.424 49.295 793.947 50.2386 793.426 51.4033C792.905 52.5533 792.562 53.5411 792.413 54.3519C792.384 54.4551 792.369 54.5878 792.369 54.7795C792.369 55.3397 792.518 55.6051 792.83 55.6051C793.143 55.6051 793.5 55.4577 793.917 55.1776C794.334 54.8827 794.707 54.5878 795.034 54.2487C795.362 53.9244 795.675 53.5853 795.987 53.2462C796.3 52.9071 796.479 52.7007 796.539 52.6565C796.598 52.6122 796.687 52.5827 796.807 52.5827C797 52.5827 797.119 52.7302 797.164 53.025C797.209 53.3199 797.224 53.6148 797.224 53.9391C797.224 54.2635 797.194 54.4699 797.134 54.5878C796.836 55.1628 796.196 55.8558 795.183 56.6666C794.186 57.4775 793.262 57.8756 792.443 57.8756C791.624 57.8756 791.013 57.625 790.641 57.1384C790.269 56.6519 790.06 56.0917 790.06 55.5019C790.06 54.8974 790.165 54.3814 790.373 53.9244C789.524 55.0154 788.556 55.9295 787.469 56.6961C786.367 57.448 785.488 57.8314 784.789 57.8314C784.089 57.8314 783.538 57.625 783.091 57.2121C782.525 56.6961 782.257 55.9885 782.257 55.0744C782.257 54.1603 782.465 53.2462 782.882 52.3174C783.299 51.4033 783.835 50.5482 784.506 49.7963C785.176 49.0296 785.92 48.3367 786.725 47.7175C788.407 46.4053 789.971 45.7566 791.401 45.7566C791.952 45.7566 792.398 45.8451 792.741 46.022C793.084 46.1989 793.307 46.4348 793.396 46.7002C793.635 46.3316 793.843 46.1104 794.022 46.0072C794.156 45.8893 794.409 45.845 794.737 45.845ZM792.711 47.5258C790.969 47.5258 789.167 48.4841 787.305 50.4007C786.65 51.0937 786.039 51.9046 785.474 52.8629C784.908 53.8212 784.64 54.4699 784.64 54.8237C784.64 55.1776 784.744 55.3545 784.952 55.3545C785.235 55.3545 786.025 54.7942 787.335 53.6885C788.646 52.5827 789.509 51.7571 789.926 51.2264C790.403 50.6366 791.326 49.3982 792.711 47.5258Z" fill="#37393F"/>
<path d="M806.323 37.8542L806.949 38.0017C807.038 38.0017 807.128 38.0459 807.187 38.1344C807.262 38.2228 807.291 38.3113 807.291 38.385C807.291 38.4587 807.187 38.6799 806.964 39.0337C806.74 39.3876 806.502 39.7856 806.204 40.2279C805.906 40.6702 805.758 40.9209 805.743 40.9651C806.532 40.9061 807.098 40.8766 807.426 40.8766C807.753 40.8766 807.977 40.9061 808.111 40.9503C808.23 40.9946 808.379 41.1273 808.528 41.3337C808.691 41.5401 808.825 41.7023 808.959 41.8055C809.093 41.9087 809.153 42.0708 809.153 42.2772C809.153 42.4837 809.019 42.6753 808.766 42.808C808.513 42.9554 808.23 43.0439 807.932 43.0734C805.564 43.3093 804.268 43.4272 804.03 43.442C803.211 44.6951 802.049 46.6413 800.575 49.2803C799.101 51.9194 798.311 53.5854 798.222 54.2488C798.177 54.5584 798.163 54.7943 798.163 54.986C798.163 55.3841 798.371 55.5757 798.788 55.5757C799.205 55.5757 799.667 55.4135 800.173 55.1039C800.679 54.7796 801.156 54.4405 801.573 54.0719C802.72 53.0694 803.33 52.5533 803.405 52.5533C803.673 52.5533 803.807 53.0104 803.807 53.9097C803.807 54.3962 803.583 54.8386 803.122 55.2366C802.094 56.1065 801.23 56.7699 800.53 57.2122C799.83 57.6545 799.131 57.8757 798.416 57.8757C798.267 57.8757 798.118 57.8609 797.984 57.8314C797.165 57.684 796.569 57.3891 796.197 56.9468C795.81 56.5045 795.631 55.9148 795.631 55.1776C795.631 54.4405 795.854 53.5264 796.301 52.4649C796.748 51.4034 797.299 50.2681 797.969 49.0739C799.071 47.1131 800.173 45.2849 801.26 43.5747L800.679 43.6484C799.503 43.7811 798.818 43.84 798.624 43.84H798.49C798.192 43.84 797.909 43.7811 797.641 43.6631C797.373 43.5452 797.224 43.3977 797.224 43.2356C797.224 43.0586 797.299 42.8965 797.448 42.7343C797.597 42.5721 797.686 42.4394 797.716 42.351C797.79 42.1298 798.058 41.8792 798.52 41.6138C798.982 41.3484 799.324 41.201 799.562 41.1862C799.801 41.1715 800.024 41.1568 800.247 41.142C800.471 41.1273 800.709 41.1273 800.977 41.1125C801.245 41.0978 801.454 41.0978 801.603 41.083L802.973 41.0241C803.822 39.7561 804.417 38.9305 804.73 38.5767C805.058 38.2081 805.236 38.0164 805.281 37.9869C805.326 37.9575 805.43 37.928 805.594 37.928L806.323 37.8542Z" fill="#37393F"/>
<path d="M815.481 52.5824C815.675 52.5824 815.794 52.7299 815.839 53.0247C815.883 53.3196 815.898 53.6145 815.898 53.9388C815.898 54.2632 815.868 54.4696 815.809 54.5875C815.511 55.1478 814.871 55.8407 813.873 56.6516C812.875 57.4625 811.922 57.8753 811.028 57.8753C810.477 57.8753 809.971 57.7131 809.494 57.3888C809.033 57.0644 808.795 56.4894 808.795 55.6785C808.795 54.8677 809.018 54.0568 809.45 53.2754C806.918 56.4157 804.952 57.9785 803.508 57.9785C802.942 57.9785 802.48 57.7721 802.123 57.374C801.765 56.976 801.602 56.5631 801.602 56.1208C801.602 55.6933 801.661 55.251 801.78 54.7939C801.899 54.3369 802.033 53.9241 802.167 53.5555C802.302 53.1869 802.51 52.7446 802.778 52.2139C803.046 51.6831 803.255 51.2998 803.374 51.0491C803.493 50.7985 803.716 50.4447 804.014 49.9581C804.312 49.4716 804.684 48.8082 805.161 47.9825C805.637 47.1569 806.025 46.5377 806.337 46.1396C806.65 45.7415 806.948 45.5351 807.246 45.5351C807.544 45.5351 807.797 45.6531 808.02 45.889C808.243 46.1249 808.363 46.3313 808.363 46.4787C808.363 46.6261 808.02 47.3043 807.335 48.5133C805.325 52.1254 804.312 54.219 804.312 54.8234C804.312 54.9709 804.372 55.0446 804.476 55.0446C804.967 55.0446 806.188 53.9978 808.124 51.9043C810.06 49.8107 811.192 48.4691 811.505 47.8793C811.818 47.2896 812.101 46.7883 812.398 46.3903C812.681 45.9922 812.905 45.7415 813.054 45.6531C813.486 45.373 814.051 45.2255 814.751 45.196C814.871 45.196 814.945 45.196 815.005 45.2108C815.064 45.2255 815.139 45.314 815.213 45.4614C815.288 45.6089 815.332 45.7415 815.332 45.8447C815.243 46.1249 814.841 46.8768 814.111 48.1005C813.396 49.3242 812.994 50.0171 812.92 50.1645C811.713 52.6267 811.118 54.2337 811.118 54.9709C811.118 55.3984 811.282 55.6048 811.609 55.6048C812.205 55.5311 812.92 55.0593 813.754 54.2042C814.066 53.8946 814.364 53.5702 814.662 53.2459C814.96 52.9215 815.153 52.7299 815.213 52.6857C815.288 52.6119 815.377 52.5824 815.481 52.5824Z" fill="#37393F"/>
<path d="M819.905 49.0886C822.302 46.3906 824.357 45.0342 826.04 45.0342C826.457 45.0342 826.8 45.1522 827.068 45.4028C827.336 45.6534 827.47 45.963 827.47 46.3611C827.47 46.7592 827.187 47.4079 826.621 48.3367C826.055 49.2508 825.534 50.0322 825.057 50.6662C824.804 50.9905 824.521 51.1527 824.194 51.1527C823.881 51.1527 823.628 51.0347 823.449 50.7989C823.27 50.563 823.181 50.2976 823.181 49.988C823.181 49.295 823.553 48.4989 824.313 47.629L824.283 47.5996C823.94 47.629 823.121 48.2925 821.781 49.5604C820.456 50.8431 819.324 51.9931 818.386 52.9956C817.462 54.0129 816.45 55.2366 815.348 56.6962C815.035 57.1237 814.767 57.3449 814.543 57.3449C814.32 57.3449 814.037 57.2712 813.68 57.1385C813.322 57.0058 813.099 56.9026 813.024 56.8436C812.95 56.7846 812.905 56.6814 812.905 56.534C812.905 56.4013 812.95 56.2244 813.024 56.0475C813.099 55.8558 813.263 55.5904 813.471 55.2513C813.68 54.9122 814.022 54.352 814.469 53.5853C814.916 52.8187 815.601 51.654 816.539 50.1059C817.477 48.5579 818.028 47.6143 818.222 47.2899C818.609 46.6265 818.922 46.14 819.175 45.8451C819.637 45.2701 820.411 44.99 821.498 44.99C821.736 44.99 821.87 45.1374 821.87 45.447C821.87 45.9188 821.424 46.8182 820.545 48.1156L819.905 49.0886Z" fill="#37393F"/>
<path d="M836.331 46.0222C836.331 46.6857 836.063 47.2754 835.512 47.7767C834.961 48.278 834.351 48.5286 833.651 48.5286C833.427 48.5286 833.278 48.4696 833.204 48.3664C833.129 48.2632 833.1 48.1158 833.1 47.9536C833.1 47.7914 833.115 47.6145 833.159 47.4523C832.787 47.5703 832.385 47.762 831.938 48.0126C831.491 48.2632 830.94 48.6318 830.285 49.1331C829.63 49.6344 829.302 49.9882 829.302 50.2388C829.302 50.3126 829.421 50.3568 829.66 50.3568C829.898 50.3568 830.27 50.2683 830.762 50.1061C831.253 49.944 831.61 49.8555 831.804 49.8555C831.998 49.8555 832.132 49.8702 832.191 49.885C832.325 49.9587 832.459 50.1061 832.623 50.342C832.772 50.5779 832.846 50.7696 832.846 50.9023C832.846 51.035 832.712 51.2119 832.444 51.433C832.176 51.6542 831.879 51.8164 831.551 51.9343C831.208 52.0523 830.985 52.1407 830.881 52.1997C828.736 53.3939 827.664 54.2048 827.664 54.6471C827.664 55.4285 828.334 55.8265 829.689 55.8265C830.553 55.8265 831.432 55.5612 832.295 55.0157C833.04 54.5586 833.71 54.0868 834.306 53.6003C834.902 53.1285 835.274 52.8337 835.438 52.7157C835.602 52.5978 835.721 52.5535 835.795 52.5535C836.063 52.5535 836.197 52.8484 836.197 53.4381C836.197 54.0279 836.167 54.4112 836.093 54.5881C836.019 54.7798 835.825 55.0009 835.482 55.281C833.308 57.0355 831.238 57.9201 829.302 57.9201C828.26 57.9201 827.441 57.7727 826.815 57.4925C825.668 56.9765 825.103 56.1951 825.103 55.1336C825.103 53.7477 826.071 52.6862 828.021 51.9785C827.634 51.8016 827.381 51.5952 827.277 51.3151C827.158 51.0497 827.113 50.6222 827.113 50.0324C827.113 49.4427 827.396 48.8235 827.947 48.16C828.498 47.4966 829.183 46.9511 829.987 46.5383C831.774 45.5799 833.383 45.1082 834.782 45.1082C835.125 45.1082 835.453 45.1819 835.81 45.344C836.167 45.5062 836.331 45.7274 836.331 46.0222Z" fill="#37393F"/>
<path d="M871.09 35.7605H871.283C871.343 35.7605 871.388 35.7606 871.402 35.7753C871.417 35.79 871.432 35.79 871.462 35.8048C871.492 35.8048 871.507 35.8195 871.536 35.849C871.581 35.8932 871.656 35.9375 871.745 35.9817C871.864 36.0702 871.924 36.1734 871.924 36.2913C871.924 36.4093 871.805 36.6599 871.566 37.0432C871.328 37.4265 870.717 38.3554 869.72 39.8592C867.441 43.3091 865.401 46.5232 863.599 49.4718C860.486 54.6025 858.908 57.1826 858.878 57.2121C858.848 57.2416 858.833 57.271 858.819 57.3005C858.804 57.3595 858.774 57.389 858.699 57.389L858.491 57.3448L858.074 57.448L857.836 57.4037L857.582 57.448H857.493L856.644 57.5659C856.138 57.5659 855.885 57.389 855.885 57.0499C855.885 56.9025 855.929 56.7255 856.019 56.5191C856.331 55.782 857.925 53.1134 860.784 48.484C858.908 48.5283 857.046 48.5577 855.215 48.5577L851.938 48.543C851.402 49.3981 850.658 50.6071 849.719 52.1846C847.694 55.6198 846.622 57.3448 846.488 57.3743C846.354 57.4037 846.249 57.4332 846.16 57.4332C846.071 57.4332 845.996 57.389 845.937 57.2858C845.862 57.1973 845.818 57.1384 845.788 57.1384C845.758 57.1384 845.713 57.1531 845.624 57.1973C845.55 57.2416 845.43 57.2563 845.267 57.2563L844.909 57.2416L844.775 57.1531C844.76 57.1531 844.745 57.1678 844.73 57.1973C844.716 57.2268 844.671 57.2416 844.611 57.2416C844.179 57.2416 843.956 57.0646 843.956 56.6961C843.956 56.4602 844.045 56.1358 844.209 55.7377C844.388 55.3397 844.611 54.9121 844.894 54.4551C845.177 53.998 845.892 52.8923 847.069 51.1673C848.23 49.4423 848.811 48.5725 848.811 48.5577C848.617 48.543 848.394 48.543 848.141 48.5283C847.62 48.5283 847.262 48.5135 847.039 48.4693C846.458 48.3661 846.056 47.8943 845.847 47.0539C845.728 46.6411 845.684 46.3757 845.698 46.243C845.698 45.9777 845.818 45.8302 846.056 45.8302L846.458 45.9334C846.666 45.9482 847.143 45.9629 847.917 46.0072C848.692 46.0514 849.243 46.0661 849.585 46.0661L850.449 46.0366C851.774 43.9873 853.353 41.6579 855.2 39.0631C853.859 40.1541 852.37 40.6996 850.732 40.6996C849.958 40.6996 849.287 40.5226 848.736 40.1541C848.171 39.7855 847.902 39.3137 847.902 38.7534C847.902 38.1932 848.111 37.7509 848.543 37.4118C848.975 37.0874 849.377 36.9253 849.764 36.9253C850.151 36.9253 850.345 36.9842 850.345 37.1022C850.345 37.1464 850.285 37.1907 850.181 37.2349C850.077 37.2939 850.017 37.3381 850.017 37.3823C850.017 37.5445 850.196 37.6919 850.553 37.8099C850.911 37.9278 851.313 38.0015 851.76 38.0015C852.206 38.0015 852.742 37.8688 853.398 37.6182C854.053 37.3676 854.723 37.0285 855.423 36.6304C856.406 36.0702 857.18 35.5984 857.746 35.2298C858.074 35.0676 858.372 34.9939 858.67 34.9939C858.967 34.9939 859.161 35.0234 859.295 35.0971C859.429 35.1561 859.518 35.2298 859.578 35.2888C859.638 35.3477 859.712 35.4362 859.772 35.5394C859.846 35.6426 859.906 35.7311 859.98 35.7753C860.04 35.8343 860.084 35.8932 860.084 35.967C860.084 36.0407 860.04 36.1439 859.965 36.3061C859.891 36.4535 859.504 37.0727 858.804 38.149C858.104 39.2252 857.195 40.5964 856.093 42.2624C854.991 43.9283 854.187 45.152 853.681 45.9482C856.406 45.9482 859.34 45.904 862.497 45.8007C866.339 39.8002 868.364 36.6599 868.573 36.365C868.781 36.0702 868.975 35.8785 869.154 35.79C869.332 35.7016 869.541 35.6573 869.794 35.6573L871.09 35.7605Z" fill="#37393F"/>
<path d="M876.064 45.8156C876.377 45.8156 876.689 45.9483 877.002 46.2285C877.33 46.5086 877.479 46.9214 877.479 47.4816C877.479 48.0419 877.285 48.7643 876.883 49.6636C876.481 50.5482 875.945 51.4623 875.245 52.3912C874.56 53.3053 873.785 54.1751 872.966 54.986C872.132 55.7969 871.239 56.4603 870.286 56.9763C869.318 57.4924 868.454 57.7577 867.665 57.7577C866.875 57.7577 866.25 57.5071 865.773 57.0206C865.297 56.534 865.059 55.8558 865.059 54.986C865.059 54.1161 865.282 53.1431 865.714 52.0963C866.146 51.0348 866.697 50.1059 867.382 49.2951C868.067 48.4842 868.797 47.7618 869.601 47.1131C871.254 45.7862 872.713 45.1375 873.964 45.1375C874.53 45.1375 874.947 45.2701 875.23 45.5503C875.334 45.6387 875.379 45.7272 875.379 45.7862V45.8746C875.543 45.8156 875.766 45.8156 876.064 45.8156ZM874.53 47.8207H874.426C874.068 47.8207 873.89 47.5701 873.89 47.0541C873.145 47.29 872.371 47.7175 871.552 48.322C870.733 48.9265 870.003 49.6489 869.362 50.4745C868.052 52.1258 867.397 53.5264 867.382 54.6616C867.382 55.2219 867.59 55.502 868.007 55.502C868.424 55.502 869.05 55.2219 869.869 54.6911C870.688 54.1604 871.507 53.379 872.326 52.3617C873.13 51.3591 873.741 50.4745 874.143 49.7374C874.545 49.0002 874.753 48.4989 874.753 48.2188C874.739 47.9534 874.664 47.8207 874.53 47.8207Z" fill="#37393F"/>
<path d="M877.151 57.4184L876.406 57.3889H876.138C876.034 57.3594 875.93 57.3004 875.811 57.212C875.691 57.1235 875.602 57.0498 875.542 57.0203C875.483 56.9908 875.453 56.9023 875.453 56.7991C875.453 56.6959 875.498 56.5043 875.572 56.2536C877.553 51.9338 879.474 48.4692 881.336 45.8891C881.544 45.609 881.872 45.3878 882.318 45.2404C882.765 45.0929 883.212 45.0192 883.644 45.0192C883.897 45.0192 884.031 45.2109 884.031 45.609C884.031 45.7269 883.986 45.8743 883.912 46.0513C883.837 46.2429 883.629 46.5378 883.301 46.9654C882.974 47.3929 882.587 47.8794 882.14 48.4102C881.693 48.941 881.44 49.2653 881.38 49.3538C882.78 47.9237 884.031 46.8621 885.163 46.1545C886.295 45.4615 887.099 45.1077 887.605 45.1077C888.112 45.1077 888.499 45.2551 888.767 45.5352C889.035 45.8154 889.169 46.125 889.169 46.4493C889.169 46.7737 889.139 47.0538 889.094 47.2602C889.05 47.4814 888.96 47.7025 888.841 47.9384C888.722 48.1743 888.618 48.3807 888.529 48.5429C888.439 48.7051 888.29 48.9262 888.097 49.1916C887.888 49.457 887.754 49.6486 887.68 49.7518C887.605 49.855 887.441 50.0467 887.203 50.3268C886.965 50.6069 886.831 50.7691 886.816 50.7986C887.099 50.5185 887.501 50.1057 888.007 49.5454C888.514 48.9852 888.945 48.5281 889.303 48.1596C889.66 47.791 890.092 47.3634 890.628 46.8916C891.164 46.4198 891.656 46.0365 892.103 45.7564C893.205 45.0782 894.322 44.7244 895.453 44.7244C895.841 44.7244 896.168 44.8423 896.436 45.0929C896.704 45.3436 896.838 45.6237 896.838 45.9628C896.838 46.3019 896.421 47.1128 895.602 48.3807C894.783 49.6486 893.949 50.9313 893.13 52.214C892.311 53.4966 891.894 54.3075 891.894 54.6466C891.894 55.1037 891.984 55.3838 892.147 55.4722C892.326 55.5607 892.535 55.5902 892.773 55.5754C893.011 55.5607 893.368 55.3985 893.8 55.1037C894.247 54.8088 894.634 54.5139 894.977 54.1896C895.543 53.6883 896.049 53.2018 896.541 52.73C896.645 52.6415 896.749 52.5973 896.883 52.5973C897.077 52.5973 897.196 52.7447 897.24 53.0396C897.285 53.3345 897.3 53.6293 897.3 53.9537C897.3 54.278 897.27 54.4844 897.211 54.6024C896.913 55.1626 896.258 55.8556 895.26 56.6812C894.247 57.4921 893.279 57.9049 892.356 57.9049C892.237 57.9049 892.162 57.9049 892.118 57.8901C891.075 57.7869 890.345 57.5068 889.943 57.035C889.541 56.5632 889.348 56.003 889.348 55.369C889.348 54.7351 889.571 53.9389 890.018 53.0249C890.465 52.1108 890.941 51.2704 891.477 50.5332C892.013 49.7961 892.49 49.1179 892.937 48.5134C893.383 47.9089 893.607 47.5846 893.607 47.5403C893.607 47.4961 893.562 47.4666 893.488 47.4666C893.175 47.4666 892.475 47.9679 891.373 48.9852C889.511 50.7102 887.903 52.3761 886.548 53.9684C886.19 54.396 885.342 55.4575 884.016 57.1825C883.867 57.3889 883.614 57.4921 883.286 57.4921C882.959 57.4921 882.616 57.4331 882.259 57.3004C881.901 57.1677 881.723 57.0055 881.723 56.8139C881.723 56.7107 882.527 55.2953 884.15 52.5678C885.773 49.8403 886.578 48.3512 886.578 48.1153C886.578 47.8647 886.429 47.7467 886.131 47.7467C885.833 47.7467 885.208 48.189 884.269 49.0736C881.693 51.5063 879.697 53.9389 878.283 56.3421C878.193 56.4895 878.015 56.7107 877.747 57.0056C877.478 57.3004 877.24 57.4184 877.151 57.4184Z" fill="#37393F"/>
<path d="M906.682 46.0222C906.682 46.6857 906.414 47.2754 905.863 47.7767C905.312 48.278 904.701 48.5286 904.001 48.5286C903.778 48.5286 903.629 48.4696 903.555 48.3664C903.48 48.2632 903.45 48.1158 903.45 47.9536C903.45 47.7914 903.465 47.6145 903.51 47.4523C903.138 47.5703 902.735 47.762 902.289 48.0126C901.842 48.2632 901.291 48.6318 900.636 49.1331C899.98 49.6344 899.653 49.9882 899.653 50.2388C899.653 50.3126 899.772 50.3568 900.01 50.3568C900.248 50.3568 900.621 50.2683 901.112 50.1061C901.604 49.944 901.961 49.8555 902.155 49.8555C902.348 49.8555 902.482 49.8702 902.542 49.885C902.676 49.9587 902.81 50.1061 902.974 50.342C903.123 50.5779 903.197 50.7696 903.197 50.9023C903.197 51.035 903.063 51.2119 902.795 51.433C902.527 51.6542 902.229 51.8164 901.901 51.9343C901.559 52.0523 901.336 52.1407 901.231 52.1997C899.087 53.3939 898.015 54.2048 898.015 54.6471C898.015 55.4285 898.685 55.8265 900.04 55.8265C900.904 55.8265 901.782 55.5612 902.646 55.0157C903.391 54.5586 904.061 54.0868 904.657 53.6003C905.252 53.1285 905.625 52.8337 905.788 52.7157C905.952 52.5978 906.071 52.5535 906.146 52.5535C906.414 52.5535 906.548 52.8484 906.548 53.4381C906.548 54.0279 906.518 54.4112 906.444 54.5881C906.369 54.7798 906.176 55.0009 905.833 55.281C903.659 57.0355 901.589 57.9201 899.653 57.9201C898.61 57.9201 897.791 57.7727 897.166 57.4925C896.019 56.9765 895.453 56.1951 895.453 55.1336C895.453 53.7477 896.421 52.6862 898.372 51.9785C897.985 51.8016 897.732 51.5952 897.627 51.3151C897.508 51.0497 897.464 50.6222 897.464 50.0324C897.464 49.4427 897.747 48.8235 898.298 48.16C898.849 47.4966 899.534 46.9511 900.338 46.5383C902.125 45.5799 903.733 45.1082 905.133 45.1082C905.476 45.1082 905.803 45.1819 906.161 45.344C906.518 45.5062 906.682 45.7274 906.682 46.0222Z" fill="#37393F"/>
<path d="M755.72 61.5021C759.636 63.1239 763.627 64.3771 767.693 65.3354C771.729 66.3379 775.839 67.0456 779.949 67.4879C782.005 67.768 784.075 67.7975 786.115 67.9892C788.185 68.0039 790.24 68.1661 792.295 68.0482L795.378 67.9745C796.405 67.9597 797.433 67.827 798.46 67.7681C799.488 67.6796 800.516 67.6354 801.528 67.5027L804.581 67.0751C808.677 66.6328 812.653 65.6892 816.614 64.554C820.62 63.463 824.403 62.0182 828.409 60.5143C832.504 59.0253 836.942 58.0522 841.439 58.524C843.658 58.8041 845.892 59.5118 847.709 60.8092C849.541 62.0919 850.851 63.92 851.685 65.8367C850.434 64.1265 848.871 62.7258 847.069 61.856C845.267 60.9861 843.286 60.6323 841.32 60.6913C837.344 60.7502 833.427 62.0624 829.749 63.7136C826.011 65.5418 821.96 67.1931 817.88 68.5642C813.77 69.8763 809.525 70.9231 805.222 71.4539C796.658 72.5744 787.887 72.5891 779.428 70.8936C775.184 70.127 771.044 68.9328 767.038 67.4142C763.062 65.8367 759.175 63.9938 755.72 61.5021Z" fill="#40DDB6"/>
<path d="M898.134 36.9549C894.813 35.5543 891.432 34.4633 888.007 33.6082C884.597 32.7088 881.142 32.0749 877.672 31.6326C875.944 31.3672 874.187 31.3082 872.459 31.1018C870.717 31.0576 868.99 30.8807 867.247 30.9544C866.383 30.9691 865.505 30.9691 864.641 30.9544C863.777 30.9544 862.899 31.0428 862.035 31.0723C861.171 31.1313 860.292 31.146 859.429 31.2345L856.837 31.5441C853.368 31.8242 850.002 32.5319 846.636 33.4018C843.226 34.2127 839.994 35.3626 836.554 36.5126C833.025 37.6773 829.197 38.385 825.355 37.8543C823.464 37.5446 821.558 36.8812 820.054 35.7017C818.52 34.537 817.477 32.9447 816.837 31.2787C817.894 32.7383 819.205 33.9325 820.709 34.6697C822.213 35.4069 823.866 35.7165 825.519 35.7017C828.855 35.7017 832.161 34.6402 835.288 33.3133C838.475 31.8095 841.975 30.4826 845.46 29.3916C848.974 28.3448 852.638 27.5487 856.301 27.1654C863.613 26.3987 871.089 26.5756 878.253 28.2564C881.842 29.0083 885.341 30.1582 888.692 31.5736C892.058 33.0184 895.304 34.6992 898.134 36.9549Z" fill="#6B77E5"/>
<path d="M1083.17 74.6057C1069.45 88.5819 1046.92 88.7968 1032.95 75.0713C1032.34 74.4714 1031.75 73.8537 1031.18 73.218L1032.53 72.0361C1033.06 72.636 1033.62 73.2359 1034.2 73.7999C1047.47 86.827 1068.87 86.6301 1081.9 73.3523L1083.17 74.6057Z" fill="#40DDB6"/>
<path d="M1085.15 27.0549L1083.78 28.2009C1083.04 27.3235 1082.25 26.464 1081.44 25.6582C1068.17 12.6311 1046.77 12.837 1033.74 26.1058C1032.86 27.0101 1032.01 27.9771 1031.23 28.9709L1029.82 27.8697C1030.64 26.8221 1031.53 25.8104 1032.47 24.8524C1046.19 10.8762 1068.72 10.6613 1082.69 24.3779C1083.56 25.2284 1084.38 26.1327 1085.15 27.0549Z" fill="#40DDB6"/>
<path d="M1132.57 25.7835L1131.23 26.9653C1130.69 26.3654 1130.14 25.7656 1129.55 25.2015C1117.33 13.213 1098.07 12.2639 1084.77 23.0079L1083.64 21.6112C1097.65 10.2942 1117.92 11.288 1130.8 23.9212C1131.42 24.53 1132.01 25.1478 1132.57 25.7835Z" fill="#40DDB6"/>
<path d="M1131.27 74.1586C1119.39 86.2635 1100.52 88.278 1086.39 78.9486L1087.37 77.4534C1100.79 86.3082 1118.71 84.3922 1129.99 72.9051C1130.88 72.0008 1131.73 71.0339 1132.51 70.04L1133.91 71.1413C1133.1 72.1888 1132.21 73.2006 1131.27 74.1586Z" fill="#40DDB6"/>
<path d="M1026.48 68.1603L1026.9 67.9006L1027.74 69.2436L1028.67 68.6617L1028.01 67.6141L1028.43 67.3545L1029.09 68.402L1030.48 67.5425L1030.8 68.0618L1027.63 70.0315L1026.48 68.1603Z" fill="#37393F"/>
<path d="M1027.58 63.0482L1027.1 61.8843L1027.56 61.6963L1028.28 63.4243L1024.84 64.8568L1024.6 64.2928L1027.58 63.0482Z" fill="#37393F"/>
<path d="M1026.22 58.1325C1026.12 58.4548 1025.95 58.7323 1025.7 58.9562C1025.45 59.189 1025.16 59.3412 1024.8 59.4217C1024.44 59.5023 1024.1 59.4934 1023.79 59.3859C1023.47 59.2785 1023.2 59.1084 1022.97 58.8577C1022.75 58.607 1022.6 58.3115 1022.53 57.9713C1022.44 57.6311 1022.45 57.2998 1022.55 56.9775C1022.65 56.6552 1022.82 56.3866 1023.06 56.1538C1023.31 55.9299 1023.61 55.7777 1023.97 55.6972C1024.32 55.6166 1024.66 55.6255 1024.99 55.733C1025.31 55.8315 1025.58 56.0016 1025.8 56.2523C1026.03 56.503 1026.18 56.7984 1026.25 57.1386C1026.33 57.4789 1026.31 57.8101 1026.22 58.1325ZM1025.43 56.6462C1025.27 56.4851 1025.09 56.3687 1024.85 56.306C1024.62 56.2433 1024.38 56.2433 1024.11 56.306C1023.84 56.3687 1023.62 56.4761 1023.44 56.6283C1023.26 56.7805 1023.13 56.9596 1023.07 57.1745C1023.01 57.3893 1023 57.6132 1023.05 57.8549C1023.11 58.0966 1023.21 58.3026 1023.36 58.4637C1023.51 58.6249 1023.7 58.7413 1023.92 58.804C1024.15 58.8666 1024.4 58.8666 1024.66 58.804C1024.93 58.7413 1025.16 58.6339 1025.34 58.4816C1025.52 58.3294 1025.64 58.1504 1025.71 57.9355C1025.78 57.7206 1025.78 57.4968 1025.73 57.255C1025.68 57.0133 1025.58 56.8163 1025.43 56.6462Z" fill="#37393F"/>
<path d="M1025.39 50.2266L1023.93 51.1398L1023.95 51.6054L1025.44 51.5517L1025.46 52.1605L1021.73 52.2859L1021.68 51.0055C1021.67 50.719 1021.72 50.4773 1021.81 50.2714C1021.9 50.0654 1022.03 49.9132 1022.19 49.8148C1022.36 49.7073 1022.54 49.6536 1022.75 49.6446C1022.99 49.6357 1023.21 49.6984 1023.42 49.8327C1023.63 49.967 1023.77 50.1818 1023.85 50.4683L1025.36 49.4924L1025.39 50.2266ZM1023.46 51.6233L1023.43 50.9429C1023.42 50.7101 1023.36 50.54 1023.24 50.4325C1023.13 50.3161 1022.96 50.2714 1022.78 50.2714C1022.59 50.2803 1022.44 50.343 1022.33 50.4594C1022.22 50.5758 1022.18 50.7549 1022.19 50.9876L1022.21 51.6591L1023.46 51.6233Z" fill="#37393F"/>
<path d="M1025.09 43.9061L1024.87 45.455L1025.59 45.831L1025.5 46.4667L1021.98 44.6223L1022.08 43.924L1025.96 43.1182L1025.87 43.7538L1025.09 43.9061ZM1024.57 44.0045L1022.77 44.3627L1024.41 45.2043L1024.57 44.0045Z" fill="#37393F"/>
<path d="M1026.41 39.3393L1026.78 38.1306L1027.25 38.2739L1026.71 40.0645L1023.13 38.9812L1023.31 38.3992L1026.41 39.3393Z" fill="#37393F"/>
<path d="M1028.5 34.8806C1028.33 35.0238 1028.15 35.1133 1027.96 35.1492C1027.76 35.185 1027.58 35.1581 1027.38 35.0596L1027.66 34.4687C1027.82 34.5224 1027.96 34.5224 1028.1 34.4687C1028.25 34.415 1028.36 34.2896 1028.45 34.1106C1028.54 33.9226 1028.57 33.7524 1028.52 33.6002C1028.49 33.448 1028.39 33.3406 1028.25 33.269C1028.13 33.2152 1028.02 33.2063 1027.92 33.2331C1027.83 33.269 1027.73 33.3227 1027.64 33.4033C1027.56 33.4838 1027.45 33.6002 1027.32 33.7524C1027.15 33.9405 1027.01 34.0927 1026.89 34.2001C1026.76 34.3075 1026.61 34.3792 1026.44 34.415C1026.27 34.4508 1026.07 34.415 1025.87 34.3165C1025.67 34.227 1025.52 34.0927 1025.43 33.9315C1025.33 33.7614 1025.28 33.5734 1025.28 33.3674C1025.29 33.1526 1025.35 32.9377 1025.45 32.7049C1025.61 32.3826 1025.82 32.1498 1026.08 32.0155C1026.34 31.8812 1026.62 31.8812 1026.91 31.9886L1026.62 32.5975C1026.49 32.5527 1026.37 32.5616 1026.22 32.6243C1026.09 32.687 1025.97 32.8123 1025.89 32.9825C1025.82 33.1436 1025.79 33.2869 1025.83 33.4301C1025.87 33.5734 1025.95 33.6719 1026.11 33.7435C1026.21 33.7972 1026.31 33.8062 1026.4 33.7703C1026.5 33.7435 1026.59 33.6808 1026.67 33.6092C1026.75 33.5286 1026.86 33.4212 1026.98 33.269C1027.15 33.072 1027.3 32.9198 1027.43 32.8123C1027.56 32.7049 1027.71 32.6243 1027.89 32.5885C1028.07 32.5527 1028.26 32.5796 1028.47 32.687C1028.64 32.7676 1028.78 32.8929 1028.89 33.0541C1029 33.2152 1029.05 33.4122 1029.06 33.6271C1029.07 33.8509 1029.02 34.0748 1028.9 34.3165C1028.8 34.5493 1028.67 34.7373 1028.5 34.8806Z" fill="#37393F"/>
<path d="M1137.15 31.4868L1136.72 31.7375L1135.93 30.3676L1134.98 30.9227L1135.6 31.9882L1135.17 32.2389L1134.55 31.1734L1133.13 31.9971L1132.83 31.4689L1136.06 29.5977L1137.15 31.4868Z" fill="#37393F"/>
<path d="M1135.91 36.563L1136.36 37.7448L1135.9 37.9239L1135.23 36.169L1138.71 34.835L1138.93 35.408L1135.91 36.563Z" fill="#37393F"/>
<path d="M1137.13 41.5228C1137.24 41.2005 1137.41 40.9319 1137.67 40.717C1137.92 40.5021 1138.23 40.3499 1138.59 40.2783C1138.95 40.2066 1139.29 40.2335 1139.6 40.3409C1139.91 40.4573 1140.18 40.6364 1140.4 40.896C1140.61 41.1557 1140.75 41.4511 1140.82 41.7914C1140.88 42.1316 1140.86 42.4629 1140.75 42.7852C1140.65 43.0986 1140.47 43.3672 1140.22 43.591C1139.97 43.8148 1139.66 43.9581 1139.3 44.0208C1138.95 44.0924 1138.61 44.0655 1138.29 43.9581C1137.97 43.8506 1137.71 43.6626 1137.5 43.4119C1137.28 43.1523 1137.14 42.8568 1137.07 42.5076C1137 42.1674 1137.02 41.8361 1137.13 41.5228ZM1137.88 43.0269C1138.03 43.197 1138.21 43.3134 1138.44 43.3851C1138.68 43.4567 1138.92 43.4567 1139.19 43.4119C1139.46 43.3582 1139.68 43.2597 1139.87 43.1165C1140.05 42.9732 1140.18 42.7941 1140.25 42.5793C1140.32 42.3644 1140.33 42.1406 1140.29 41.8988C1140.24 41.6571 1140.15 41.4511 1140 41.281C1139.86 41.1109 1139.67 40.9945 1139.45 40.9229C1139.22 40.8513 1138.97 40.8513 1138.7 40.896C1138.44 40.9498 1138.2 41.0482 1138.02 41.1915C1137.84 41.3348 1137.71 41.5138 1137.64 41.7287C1137.57 41.9436 1137.55 42.1674 1137.59 42.4091C1137.64 42.6509 1137.74 42.8568 1137.88 43.0269Z" fill="#37393F"/>
<path d="M1137.73 49.4472L1139.21 48.5787V48.1131L1137.72 48.1221V47.5133L1141.45 47.4954L1141.46 48.7846C1141.46 49.0712 1141.42 49.3129 1141.32 49.5099C1141.22 49.7068 1141.09 49.859 1140.92 49.9575C1140.74 50.056 1140.56 50.1097 1140.35 50.1097C1140.11 50.1097 1139.89 50.0381 1139.69 49.9038C1139.49 49.7695 1139.35 49.5457 1139.28 49.2502L1137.74 50.1814L1137.73 49.4472ZM1139.7 48.1042V48.7846C1139.7 49.0174 1139.76 49.1875 1139.88 49.3039C1139.99 49.4203 1140.15 49.4741 1140.34 49.4741C1140.54 49.4741 1140.68 49.4114 1140.8 49.3039C1140.91 49.1875 1140.96 49.0174 1140.96 48.7846V48.1042H1139.7Z" fill="#37393F"/>
<path d="M1137.84 55.7678L1138.1 54.2279L1137.4 53.8339L1137.5 53.1982L1140.97 55.1411L1140.85 55.8395L1136.94 56.5378L1137.05 55.9021L1137.84 55.7678ZM1138.37 55.6873L1140.18 55.3739L1138.57 54.4786L1138.37 55.6873Z" fill="#37393F"/>
<path d="M1136.39 60.2988L1135.99 61.4985L1135.53 61.3374L1136.12 59.5557L1139.66 60.7375L1139.46 61.3195L1136.39 60.2988Z" fill="#37393F"/>
<path d="M1134.18 64.6946C1134.35 64.5603 1134.53 64.4708 1134.73 64.4439C1134.92 64.4171 1135.11 64.4529 1135.31 64.5514L1135.01 65.1333C1134.86 65.0707 1134.72 65.0707 1134.58 65.1244C1134.43 65.1781 1134.32 65.2945 1134.22 65.4736C1134.12 65.6616 1134.09 65.8317 1134.13 65.9839C1134.16 66.1361 1134.25 66.2525 1134.4 66.3241C1134.5 66.3779 1134.61 66.3958 1134.72 66.3689C1134.83 66.342 1134.92 66.2883 1135.01 66.2077C1135.09 66.1272 1135.2 66.0197 1135.34 65.8675C1135.51 65.6795 1135.65 65.5362 1135.78 65.4288C1135.91 65.3214 1136.06 65.2587 1136.23 65.2229C1136.4 65.1871 1136.6 65.2318 1136.81 65.3393C1136.99 65.4378 1137.14 65.5721 1137.23 65.7422C1137.33 65.9123 1137.37 66.1003 1137.36 66.3152C1137.35 66.5301 1137.28 66.7449 1137.16 66.9688C1137 67.2911 1136.78 67.5149 1136.52 67.6403C1136.25 67.7656 1135.97 67.7656 1135.68 67.6403L1135.99 67.0404C1136.12 67.0941 1136.25 67.0852 1136.39 67.0314C1136.54 66.9688 1136.64 66.8524 1136.73 66.6823C1136.81 66.5301 1136.84 66.3779 1136.81 66.2346C1136.79 66.0913 1136.7 65.9839 1136.55 65.9123C1136.45 65.8586 1136.35 65.8496 1136.25 65.8765C1136.15 65.9033 1136.06 65.957 1135.97 66.0287C1135.88 66.1003 1135.78 66.2167 1135.65 66.3599C1135.48 66.548 1135.33 66.7002 1135.19 66.8076C1135.06 66.9151 1134.91 66.9867 1134.74 67.0225C1134.56 67.0583 1134.37 67.0135 1134.15 66.9061C1133.98 66.8166 1133.85 66.6912 1133.75 66.5211C1133.64 66.351 1133.6 66.163 1133.59 65.9391C1133.59 65.7153 1133.65 65.4915 1133.77 65.2587C1133.87 65.0169 1134.01 64.8379 1134.18 64.6946Z" fill="#37393F"/>
<path d="M1055.22 41.7025C1056.3 41.7025 1057.11 41.5771 1057.68 41.3354C1058.23 41.0847 1058.6 40.8967 1058.77 40.7713C1058.77 41.031 1058.72 41.3443 1058.61 41.7025C1058.5 42.0696 1058.3 42.4187 1058.03 42.7679C1057.75 43.1081 1057.38 43.4036 1056.93 43.6364C1056.49 43.8692 1055.91 43.9945 1055.22 43.9945C1054.35 43.9945 1053.5 43.8244 1052.68 43.4931C1051.87 43.1619 1051.06 42.8037 1050.26 42.4098C1049.47 42.0248 1048.69 41.6667 1047.91 41.3264C1047.13 40.9862 1046.34 40.825 1045.53 40.825C1044.65 40.825 1043.87 40.9683 1043.21 41.2459C1042.55 41.5234 1041.98 41.8994 1041.52 42.3561C1041.05 42.8216 1040.67 43.3409 1040.37 43.9319C1040.07 44.5228 1039.82 45.1226 1039.64 45.7404C1039.47 46.3493 1039.34 46.9491 1039.28 47.5311C1039.21 48.1131 1039.18 48.6234 1039.18 49.08C1039.18 49.7068 1039.23 50.1902 1039.34 50.5484C1039.45 50.9065 1039.52 51.1303 1039.56 51.2378V51.2736C1039.12 51.1482 1038.7 50.9602 1038.34 50.7274C1038.03 50.5126 1037.76 50.226 1037.51 49.859C1037.26 49.4919 1037.15 49.0173 1037.15 48.4443C1037.15 47.54 1037.34 46.6089 1037.75 45.6419C1038.14 44.675 1038.7 43.7976 1039.4 43.0007C1040.11 42.2039 1040.97 41.5503 1041.98 41.031C1042.99 40.5117 1044.11 40.261 1045.33 40.261C1046.04 40.261 1046.83 40.3326 1047.68 40.4848C1048.54 40.637 1049.42 40.7982 1050.31 40.9862C1051.2 41.1653 1052.07 41.3354 1052.92 41.4876C1053.76 41.6308 1054.53 41.7025 1055.22 41.7025ZM1043.1 58.2124C1043.1 57.9975 1043.16 57.6394 1043.28 57.138C1043.4 56.6366 1043.56 56.0368 1043.76 55.3384C1043.97 54.64 1044.2 53.8611 1044.47 53.0016C1044.74 52.1421 1045.02 51.2557 1045.29 50.3335C1044.71 50.4588 1044.23 50.5215 1043.84 50.5215C1043.58 50.5215 1043.37 50.4767 1043.2 50.3962C1043.03 50.3156 1042.89 50.2171 1042.78 50.1007C1042.67 49.9843 1042.6 49.8769 1042.55 49.7694C1042.51 49.662 1042.49 49.5814 1042.49 49.5098C1042.55 49.5725 1042.68 49.6441 1042.86 49.7157C1043.04 49.7873 1043.24 49.8321 1043.46 49.8321C1043.69 49.8321 1044 49.7963 1044.36 49.7157C1044.73 49.6441 1045.12 49.5456 1045.55 49.4382C1045.77 48.6592 1045.98 47.8892 1046.2 47.1282C1046.41 46.3582 1046.6 45.6509 1046.76 45.0063C1046.92 44.3616 1047.05 43.8065 1047.15 43.3409C1047.25 42.8754 1047.29 42.5441 1047.29 42.3561C1047.29 42.2665 1047.29 42.1949 1047.29 42.1322C1047.29 42.0696 1047.28 41.9621 1047.25 41.8099C1047.41 41.8547 1047.62 41.9263 1047.9 42.0337C1048.18 42.1412 1048.45 42.2665 1048.71 42.4008C1048.96 42.5441 1049.19 42.6784 1049.39 42.8037C1049.58 42.9291 1049.67 43.0276 1049.67 43.0902C1049.67 43.4305 1049.53 44.1109 1049.23 45.1226C1048.95 46.1344 1048.58 47.3252 1048.15 48.704C1048.78 48.5339 1049.28 48.3727 1049.66 48.2384C1050.05 48.0952 1050.41 47.9967 1050.73 47.934C1050.73 47.7639 1050.71 47.6296 1050.67 47.549C1050.94 47.5938 1051.23 47.6385 1051.52 47.6743C1051.8 47.7191 1052.07 47.7728 1052.32 47.8355C1052.57 47.8982 1052.77 47.9788 1052.92 48.0772C1053.07 48.1757 1053.15 48.2832 1053.15 48.4175C1053.15 48.6144 1053.1 48.8383 1053.02 49.0979C1052.93 49.3576 1052.84 49.6262 1052.73 49.9037C1052.63 50.1813 1052.54 50.4588 1052.46 50.7453C1052.38 51.0318 1052.36 51.2915 1052.38 51.5511C1052.22 51.5511 1052.01 51.5511 1051.73 51.5511C1051.45 51.5511 1051.18 51.5422 1050.91 51.5153C1050.64 51.4974 1050.41 51.4437 1050.2 51.3721C1049.99 51.3004 1049.9 51.1751 1049.9 51.005C1049.9 50.8796 1049.93 50.7095 1050.01 50.5036C1050.08 50.2977 1050.17 50.0828 1050.27 49.8411C1050.37 49.6083 1050.46 49.3665 1050.55 49.1337C1050.64 48.901 1050.7 48.695 1050.75 48.5249C1050.38 48.6324 1049.99 48.7846 1049.56 48.9726C1049.13 49.1696 1048.59 49.3665 1047.94 49.5814C1047.67 50.5305 1047.38 51.4885 1047.09 52.4644C1046.81 53.4403 1046.54 54.3714 1046.31 55.2489C1046.07 56.1263 1045.87 56.9231 1045.71 57.6215C1045.54 58.3199 1045.46 58.875 1045.43 59.2779C1045.34 59.26 1045.17 59.2062 1044.91 59.1167C1044.65 59.0272 1044.39 58.9376 1044.12 58.8392C1043.85 58.7407 1043.62 58.6422 1043.41 58.5347C1043.21 58.4273 1043.1 58.3199 1043.1 58.2124Z" fill="#6B77E5"/>
<path d="M1113.79 55.4553C1113.94 54.9002 1114.18 54.0228 1114.51 52.8409C1114.84 51.6591 1115.26 50.3429 1115.74 48.8925C1116.22 47.4421 1116.78 45.9469 1117.41 44.4158C1118.05 42.8759 1118.72 41.4791 1119.45 40.2078C1120.16 38.9364 1120.93 37.8978 1121.74 37.0831C1122.54 36.2683 1123.38 35.8564 1124.24 35.8564C1124.56 35.8564 1124.86 35.9639 1125.16 36.1788C1125.44 36.3936 1125.71 36.6264 1125.95 36.8861C1126.21 37.1905 1126.45 37.5307 1126.69 37.9157C1126.63 37.8978 1126.55 37.8709 1126.47 37.853C1126.4 37.8351 1126.32 37.8083 1126.24 37.7904C1126.15 37.7725 1126.07 37.7546 1125.98 37.7546C1124.89 37.7546 1123.85 38.1395 1122.88 38.9185C1121.92 39.6885 1121.01 40.6733 1120.18 41.8641C1119.34 43.0549 1118.59 44.38 1117.91 45.8305C1117.23 47.2809 1116.63 48.6866 1116.12 50.0385C1115.6 51.3905 1115.17 52.6171 1114.81 53.7094C1114.45 54.8017 1114.2 55.5985 1114.05 56.091C1114.17 56.3506 1114.31 56.5118 1114.43 56.5745C1113.96 56.6371 1113.52 56.6461 1113.11 56.5924C1112.69 56.5386 1112.34 56.3864 1112.01 56.1447C1111.69 55.894 1111.43 55.5448 1111.24 55.0793C1111.05 54.6137 1110.94 54.0317 1110.92 53.3244C1110.9 52.6619 1110.88 51.8113 1110.86 50.7906C1110.84 49.7699 1110.81 48.7492 1110.8 47.7286C1110.78 46.7079 1110.76 45.7946 1110.75 44.9888C1110.74 44.183 1110.73 43.6727 1110.73 43.4578V42.9385C1110.56 43.4578 1110.27 44.2815 1109.87 45.4186C1109.45 46.5557 1108.95 47.836 1108.35 49.2506C1107.75 50.6653 1107.08 52.1246 1106.34 53.6199C1105.59 55.1151 1104.82 56.4849 1104 57.7294C1103.19 58.9739 1102.34 59.9946 1101.49 60.7915C1100.63 61.5883 1099.78 61.9823 1098.94 61.9823C1098.62 61.9823 1098.35 61.8659 1098.14 61.6241C1097.92 61.3914 1097.75 61.1227 1097.62 60.8183C1097.47 60.4781 1097.34 60.0752 1097.23 59.6275C1097.32 59.6723 1097.4 59.6992 1097.49 59.726C1097.66 59.7708 1097.81 59.7887 1097.94 59.7887C1099 59.7887 1100.02 59.4216 1101 58.6964C1101.99 57.9712 1102.92 57.0221 1103.79 55.8761C1104.65 54.7301 1105.47 53.4587 1106.22 52.0709C1106.97 50.6832 1107.65 49.3312 1108.24 48.0061C1108.83 46.681 1109.33 45.4723 1109.75 44.38C1110.17 43.2877 1110.48 42.464 1110.7 41.9268C1110.61 41.6672 1110.57 41.4881 1110.57 41.3807C1110.83 41.3807 1111.12 41.3896 1111.42 41.4165C1111.74 41.4344 1112.03 41.5239 1112.31 41.6761C1112.59 41.8283 1112.83 42.0432 1113.02 42.3387C1113.21 42.6252 1113.3 43.046 1113.3 43.5832C1113.3 43.8607 1113.31 44.2726 1113.34 44.8098C1113.36 45.347 1113.38 45.9468 1113.38 46.6004C1113.39 47.254 1113.41 47.9345 1113.43 48.6508C1113.45 49.3581 1113.46 50.0385 1113.47 50.6832C1113.48 51.3278 1113.49 51.9008 1113.51 52.3933C1113.52 52.8857 1113.53 53.2528 1113.53 53.4856C1113.55 54.2376 1113.63 54.8912 1113.79 55.4553Z" fill="#6B77E5"/>
<path d="M1083.65 43.2785C1083.5 47.1284 1081.92 49.7159 1080.1 49.6443C1078.29 49.5726 1076.93 46.8687 1077.08 43.0188C1077.23 39.1689 1080.67 35.7129 1080.67 35.7129C1080.67 35.7129 1083.8 39.4285 1083.65 43.2785Z" fill="#37393F"/>
<path d="M1087.97 42.007C1087.96 42.1592 1087.51 45.7584 1085.27 47.8714C1084.21 48.8832 1083.05 49.6263 1082.03 49.9576C1080.94 50.3157 1080.04 50.1993 1079.5 49.6263C1078.46 48.525 1079.35 46.0718 1081.57 43.9588C1083.81 41.8458 1087.42 41.5951 1087.58 41.5862L1088.03 41.5593L1087.97 42.007ZM1080.05 49.107C1080.37 49.4562 1081 49.5009 1081.8 49.2413C1082.71 48.9458 1083.77 48.2654 1084.75 47.3253C1086.34 45.8301 1086.95 43.4127 1087.14 42.392C1086.12 42.5352 1083.67 43.0098 1082.09 44.505C1080.68 45.848 1079.8 47.3253 1079.8 48.3639C1079.8 48.6772 1079.89 48.9279 1080.05 49.107Z" fill="#37393F"/>
<path d="M1080.67 49.6707C1080.33 49.9752 1079.86 50.1274 1079.33 50.1005C1078.08 50.0378 1076.48 49.053 1075.05 47.4682C1073 45.1762 1072.83 41.559 1072.83 41.4068L1072.81 40.9502L1073.26 41.0129C1073.41 41.0308 1076.99 41.5769 1079.05 43.86C1080.44 45.4 1081.22 46.9937 1081.22 48.2382C1081.24 48.8381 1081.04 49.3395 1080.67 49.6707ZM1075.62 46.9579C1076.9 48.3725 1078.33 49.2947 1079.37 49.3484C1079.71 49.3663 1079.98 49.2857 1080.17 49.1156C1080.37 48.9276 1080.48 48.6322 1080.48 48.2472C1080.48 47.1996 1079.74 45.7581 1078.5 44.3704C1077.04 42.7498 1074.64 42.0783 1073.63 41.8545C1073.75 42.8752 1074.16 45.3284 1075.62 46.9579Z" fill="#37393F"/>
<path d="M1080.71 41.9084C1080.71 41.7472 1080.59 41.6129 1080.42 41.6039C1080.25 41.595 1080.11 41.7293 1080.1 41.8904L1079.3 61.9011C1079.3 61.9101 1079.3 61.9101 1079.3 61.9101C1079.3 62.0713 1079.42 62.2056 1079.59 62.2145C1079.76 62.2235 1079.9 62.0892 1079.91 61.9191L1080.71 41.9084C1080.71 41.9173 1080.71 41.9173 1080.71 41.9084Z" fill="#37393F"/>
<path d="M1092.56 47.2003C1092.56 47.1734 1092.56 47.1555 1092.55 47.1286C1092.51 46.9675 1092.34 46.869 1092.18 46.9048C1092.06 46.9317 1079.77 50.0295 1079.35 60.7198C1079.35 60.7287 1079.35 60.7288 1079.35 60.7288C1079.35 60.8899 1079.48 61.0242 1079.64 61.0332C1079.81 61.0421 1079.94 60.9078 1079.95 60.7377C1080.36 50.4951 1092.2 47.5136 1092.32 47.4868C1092.47 47.4599 1092.56 47.3346 1092.56 47.2003Z" fill="#37393F"/>
<path d="M1088.88 53.6911C1088.88 53.6821 1088.88 53.6642 1088.88 53.6463C1088.85 53.4762 1088.7 53.3598 1088.54 53.3867C1088.45 53.3956 1079.6 54.6759 1079.33 61.5163V61.5252C1079.33 61.6864 1079.45 61.8207 1079.62 61.8297C1079.79 61.8386 1079.93 61.7043 1079.93 61.5342C1080.18 55.2042 1088.54 53.9955 1088.62 53.9865C1088.77 53.9686 1088.88 53.8433 1088.88 53.6911Z" fill="#37393F"/>
<path d="M1079.97 60.191C1079.97 49.9126 1068.39 45.991 1068.28 45.9463C1068.12 45.8926 1067.95 45.9821 1067.89 46.1433C1067.85 46.3044 1067.93 46.4745 1068.09 46.5282C1068.21 46.5641 1079.78 50.4856 1079.36 60.7282C1079.36 60.7372 1079.36 60.7372 1079.36 60.7372C1079.36 60.8983 1079.49 61.0326 1079.65 61.0416C1079.82 61.0506 1079.95 60.9163 1079.96 60.7461C1079.97 60.5581 1079.97 60.3701 1079.97 60.191Z" fill="#37393F"/>
<path d="M1079.93 61.2297C1079.93 54.64 1071.48 52.724 1071.39 52.7061C1071.23 52.6703 1071.07 52.7777 1071.03 52.9389C1071 53.109 1071.11 53.2612 1071.27 53.297C1071.35 53.3149 1079.55 55.1683 1079.33 61.5162V61.5252C1079.33 61.6863 1079.45 61.8206 1079.62 61.8296C1079.79 61.8385 1079.92 61.7042 1079.93 61.5341C1079.93 61.4356 1079.93 61.3282 1079.93 61.2297Z" fill="#37393F"/>
<path d="M1094.42 47.2898C1094.38 48.4806 1093.36 49.4118 1092.17 49.367C1091.01 49.3223 1090.1 48.3732 1090.1 47.1197C1090.14 45.9289 1091.15 44.9978 1092.34 45.0426C1093.51 45.0873 1094.42 46.0364 1094.42 47.2093V47.2898ZM1092.2 48.5344C1092.93 48.5612 1093.55 47.9882 1093.59 47.254L1094.01 47.2003H1093.59C1093.59 46.4841 1093.02 45.9021 1092.31 45.8663C1091.57 45.8394 1090.96 46.4124 1090.92 47.2003C1090.92 47.9166 1091.48 48.5075 1092.2 48.5344Z" fill="#37393F"/>
<path d="M1070.35 46.3226C1070.32 46.9046 1070.08 47.4328 1069.65 47.8268C1069.23 48.2207 1068.67 48.4177 1068.09 48.3998C1066.92 48.355 1066.01 47.406 1066.01 46.1525C1066.04 45.5705 1066.28 45.0423 1066.71 44.6484C1067.13 44.2544 1067.69 44.0574 1068.27 44.0753C1069.43 44.1201 1070.35 45.0692 1070.35 46.242V46.3226ZM1068.12 47.5671C1068.48 47.585 1068.82 47.4597 1069.08 47.218C1069.34 46.9762 1069.49 46.6449 1069.51 46.2868L1069.93 46.2331H1069.52C1069.52 45.5168 1068.96 44.9349 1068.24 44.899C1067.88 44.8811 1067.54 45.0065 1067.28 45.2482C1067.02 45.49 1066.87 45.8212 1066.85 46.2331C1066.84 46.9494 1067.41 47.5403 1068.12 47.5671Z" fill="#37393F"/>
<path d="M1090.32 53.7628C1090.28 54.7297 1089.47 55.4818 1088.5 55.4371C1087.54 55.4012 1086.78 54.5865 1086.83 53.6195C1086.86 52.6526 1087.68 51.9005 1088.65 51.9453C1089.61 51.9811 1090.36 52.7958 1090.32 53.7628Z" fill="#37393F"/>
<path d="M1073.08 53.0733C1073.04 54.0403 1072.23 54.7924 1071.26 54.7476C1070.29 54.7118 1069.54 53.897 1069.58 52.9301C1069.62 51.9631 1070.43 51.211 1071.4 51.2558C1072.37 51.2916 1073.11 52.1064 1073.08 53.0733Z" fill="#37393F"/>
</svg>
